/* XPM */
static char *a63c9062460c449cc7346bec1ccf013fOLNnm0WGwHld6JxX[] = {
/* columns rows colors chars-per-pixel */
"64 64 256 2 ",
"   c #020203",
".  c #05040A",
"X  c #0C030B",
"o  c #0B0B0C",
"O  c #080608",
"+  c #12040D",
"@  c #160A0C",
"#  c #15120C",
"$  c #030C15",
"%  c #0C0D13",
"&  c #030C1B",
"*  c #090D1B",
"=  c #080514",
"-  c #120512",
";  c #140B14",
":  c #1B0B13",
">  c #160A19",
",  c #021016",
"<  c #04121C",
"1  c #0A131D",
"2  c #0D1518",
"3  c #131314",
"4  c #14141A",
"5  c #1B1A1D",
"6  c #191619",
"7  c #271717",
"8  c #2A1411",
"9  c #37261A",
"0  c #322918",
"q  c #030D22",
"w  c #040E2B",
"e  c #080C23",
"r  c #041324",
"t  c #0B1423",
"y  c #0B1925",
"u  c #04132C",
"i  c #06192C",
"p  c #0C1C2C",
"a  c #091529",
"s  c #141523",
"d  c #131A24",
"f  c #1D1B23",
"g  c #131B2C",
"h  c #1C1B2A",
"j  c #161529",
"k  c #040E35",
"l  c #041434",
"z  c #0B1B33",
"x  c #05133C",
"c  c #041A3C",
"v  c #0C1B3B",
"b  c #071835",
"n  c #141C33",
"m  c #161A37",
"M  c #130F34",
"N  c #231E2B",
"B  c #1B232C",
"V  c #15232B",
"C  c #132332",
"Z  c #1B2334",
"A  c #1B243C",
"S  c #18273A",
"D  c #0D2130",
"F  c #292729",
"G  c #372B28",
"H  c #39342A",
"J  c #232333",
"K  c #282B36",
"L  c #293337",
"P  c #383636",
"I  c #322A33",
"U  c #1C221E",
"Y  c #503312",
"T  c #693915",
"R  c #463828",
"E  c #453B33",
"W  c #4F322B",
"Q  c #693821",
"!  c #69441B",
"~  c #75491B",
"^  c #76511D",
"/  c #57452B",
"(  c #494437",
")  c #564935",
"_  c #585337",
"`  c #51492D",
"'  c #684927",
"]  c #754C24",
"[  c #7A5527",
"{  c #675938",
"}  c #775834",
"|  c #6A4E30",
" . c #7B6439",
".. c #776D3A",
"X. c #5C431B",
"o. c #041442",
"O. c #051A44",
"+. c #051649",
"@. c #051B4B",
"#. c #0A1947",
"$. c #141B44",
"%. c #0B1D53",
"&. c #0A2246",
"*. c #192846",
"=. c #172F51",
"-. c #252B43",
";. c #253849",
":. c #373844",
">. c #233959",
",. c #323D5D",
"<. c #223B63",
"1. c #1D485B",
"2. c #1E444F",
"3. c #2E4655",
"4. c #254867",
"5. c #295978",
"6. c #2D5571",
"7. c #366B75",
"8. c #4E514B",
"9. c #6E594C",
"0. c #7B6648",
"q. c #736E51",
"w. c #4B7373",
"e. c #6A6F69",
"r. c #54645B",
"t. c #89311A",
"y. c #813829",
"u. c #8E5017",
"i. c #A65615",
"p. c #AA6518",
"a. c #B76B1A",
"s. c #BD6E14",
"d. c #844925",
"f. c #825B2C",
"g. c #885927",
"h. c #845D33",
"j. c #875C36",
"k. c #975A35",
"l. c #97512A",
"z. c #A7522A",
"x. c #97652B",
"c. c #856234",
"v. c #8B6434",
"b. c #8C653B",
"n. c #8D693C",
"m. c #886638",
"M. c #9A6C3B",
"N. c #966A38",
"B. c #9A723E",
"V. c #8D6A2D",
"C. c #A96B28",
"Z. c #B76D24",
"A. c #B97529",
"S. c #A56A37",
"D. c #A77439",
"F. c #B77838",
"G. c #B16C31",
"H. c #C37319",
"J. c #C36D0E",
"K. c #C37A29",
"L. c #C27935",
"P. c #985945",
"I. c #8A5C4C",
"U. c #8D6B42",
"Y. c #886745",
"T. c #936C43",
"R. c #966B48",
"E. c #9B7344",
"W. c #94734B",
"Q. c #9B744B",
"!. c #9C794D",
"~. c #947446",
"^. c #8C7354",
"/. c #947452",
"(. c #9B7552",
"). c #9B7B53",
"_. c #9C7C5B",
"`. c #957959",
"'. c #8D7050",
"]. c #A57748",
"[. c #B47C44",
"{. c #B47948",
"}. c #A27D53",
"|. c #A27E5B",
" X c #A77A55",
".X c #AC754D",
"XX c #997C63",
"oX c #8E7D73",
"OX c #A77256",
"+X c #528D78",
"@X c #66876C",
"#X c #908234",
"$X c #B3863C",
"%X c #C68238",
"&X c #988655",
"*X c #B9844B",
"=X c #A3825D",
"-X c #AB8259",
";X c #B98857",
":X c #AC9150",
">X c #9D8367",
",X c #998770",
"<X c #A38563",
"1X c #A78969",
"2X c #B48A66",
"3X c #B8946B",
"4X c #A68C76",
"5X c #B48E73",
"6X c #AC9278",
"7X c #B69778",
"8X c #AC906B",
"9X c #B3A05E",
"0X c #C38649",
"qX c #C48D58",
"wX c #C5925C",
"eX c #C39567",
"rX c #C49B77",
"tX c #C9A37C",
"yX c #C7B867",
"uX c #C5AE51",
"iX c #DAC57A",
"pX c #2D5985",
"aX c #2A6786",
"sX c #336B88",
"dX c #367994",
"fX c #337193",
"gX c #4F7381",
"hX c #3B879A",
"jX c #3591AE",
"kX c #3AA5BA",
"lX c #489296",
"zX c #4C908E",
"xX c #56A598",
"cX c #4999A8",
"vX c #4EAFB2",
"bX c #63B3B3",
"nX c #6D958E",
"mX c #5AC1BC",
"MX c #3BB1C9",
"NX c #4CB9C7",
"BX c #3CC6DD",
"VX c #4EC7D5",
"CX c #50D6EC",
"ZX c #5FD6E4",
"AX c #AB9886",
"SX c #B79B84",
"DX c #BBA996",
"FX c #BBA489",
"GX c #8B9B8E",
"HX c #C8A687",
"JX c #C9AF93",
"KX c #D0B59C",
"LX c #F5E3B8",
"PX c #DCCCA3",
"IX c #FCFBF5",
"UX c #F0E6C9",
/* pixels */
"3 4 . 4 3 3 O o o @ # N # 3 % 3 3 U 6 6 0 5 0 H F U U U V V V V y y y , , V $ % $ < < % = , & $ $ % $ $ o o 1 d < % $ < $ $ o $ ",
"  4 f % ; o 3 o # # 3 ; ; % 3 3 U # 7 U 0 0 ` ` H H H F U L 3.L y D S , o 2 * $ 4 $ % $ % t r C 1 < $ $ $ . % t Z $ o , V $ $ $ ",
"3 % ; % % 3 o 5 # # % f 3 F 3 3 3 U 7 H H ` ......` H F L U L D D D D y d = $ B B K * 4 1 $ p *.$ 2 < , $ $ % 1 < , $ < < y $ $ ",
"o # % 3 o @ # @ o 3 5 5 6 3 5 5 2 E H E _ JXPXyX:X.._ H H L 2.S V D D y t t % % $ * < t < % d 1 < , , 2 $ o , $ $ , < < , p < $ ",
"D 2 U o 3 6 5 N 4 f 3 4 6 3 5 U F U 0 R ` 9XiXUXLX9X..` 0 L V S C C 3.S t * * = * g & $ 1 < y < , $ d 1 , , o , < < d $ , , < < ",
"2.U 4 U 5 # 4 6 6 4 4 3 4 5 5 6 5 F F H _ :XLXIXIXPX@X8.L F L V C C C p t * = & & * * t 1 & y 1 < 2 < C < 1 , , < < 2 , < < < , ",
"1.V 2 2 4 4 6 s 4 d 5 5 4 6 F f F F F H ` ..iXUXLXyXq.` H L L L C C C D a t e = & * 1 g < $ < , < < $ g 1 , , , , y , , , < < < ",
"1.S V U s 1 4 s s h h s 5 d f f U B 0 H ` ..&XyXuX#X_ H L L V V S C C S Z g * $ $ 1 = < q C < < < 1 < < < 1 , Z , < y < < < , < ",
"2.2.B V j s h m j J s s s 5 s N f N F G E ` { ....{ &X( L L B ;.V C D D t 1 V = 1 1 = & < p p < y g 1 y < r < < < < y y V y V < ",
"1.;.S S g g g m A j s h s s s 4 h N F F H H ` ( ` ( ,XH P B J Z C D D S y g Z & 1 & < 1 < < < i r A C q < < r r < < < < V < < 1 ",
"1.2.;.-.S z n g m j g j j j s J h N F I P P H ( H P I I N Z h m n p y L a a t & % r.& < < < < i i i u w u u w g C r y < y < < < ",
"5.5.7.1.S *.-.m g h g Z j j > J j N L E q.I G H F L F N N m m m z z z p a r * * % d & r < D r a r u l k w r b *.< < r r y y y < ",
"7.7.5.1.>.=.$.A n n g A h j s N B N 8.:.8.G F I H J F h m M v $.v v *.z a t * = $ a a * y p r i b l ,.w k k k w r i a z r < < < ",
"7.7.dXhX5.=.*.>.A A A h g s j j J -.m N F F L F K Z Z M j M $.$.$.v D v z a * * s & e q r y z i b #.k k k k k k u u u r D p i < ",
"7.7.aXdXpX<.<.*.*.*.-.n g s j j h h f J F L L J J J m h j M M $.$.$.$.D z a & & & * 9 Y U t p u l k #.k k x x o.l w u u D r C r ",
"7.7.aXaXfX5.<.;.*.*.A n g g h f h B j h h F K -.-.m J m j M M $.M $.$.v z n J r f ] l.i.u.f i z b *.x o.x x x x k x c b i y i y ",
"7.7.sXsXpXpX<.,.;.S S Z Z Z Z g B Z K g Z K A A J M M M m 3.M $.v *.v S *.b n s d.z.z.z.i.W i z b c c c o.x o.x k k x $.z i p i ",
"7.7.sXsXpX6.4.<.=.*.*.S Z Z P E h -.m K A K A S A m j h M J *.M v v v v D z a ] x.S.OX{.i.Q i b b c O.&.o.x x x o.#.#.M l u z z ",
"7.7.zXsXfX5.6.<.>.=.-.S A E k.x.h.0.P A S -.A *.*.$.M e.Z m -.$.*.K A S S v Q k.S..X.X{.z.t.j x &.c c &.O.o.#.o.o.$.k x &.b b i ",
"7.7.hXhXfXpX6.4.1.;.=.=.*.E u.M..X*X;X0.3.K *.-.-.$.J :.:.:.r.9.9.2X6X0.^.| x.S.N.].OXG.z.t.M x &.c c &.c O.+.+.o.o.x x C C b i ",
"7.zXhXlXdXsX6.4.1.>.>.=.;.E u.M. X X*X;X2Xq.:.9.3XXX,X7XrXHXtXHX;X*X0XwX*Xx.k.N.N.R..Xz.z.l.$.o.c &.@.&.@.+.+.+.+.#.#.x e.r.x b ",
"w.zXlXhXdXsX5.7.5.1.<.>.6.:.t.k.-X|.|.*X*X;XeX3XqXrXHXrXtXtXtXtX;X;X[.L.[.M.l.v.E.OXOXl.z.k.m #.O.@.@.%.%.%.+.o.+.#.x c *.S v b ",
"w.+XlXhXdXfXsXsX5.5.4.<.,.,.Q z.N.(.8XE.N.[.;XeXwXHXJXrXeXwXtXtXrXrXeXqX[.].l.l.j.OXI.P.P.P.m +.+.+.@.@.%.O.O.+.+.+.o.$.&.v z D ",
"w.zXzXlXlXlXsXaXaXpX5.4.4.4.9.l.g.<X=XB.g.*XeXJXHXtXrX;X*X0XwXeX*X*XeX;XeX2X}.R.R.I.I.P.z.d.$.+.=.@.@.=.@.@.+.@.+.+.x *.b b z u ",
"+XxXzXzXjXlXhXhXaX5.5.5.pXpXw.P.P.`.R.T.=XrXHXrX7XtX:X-XD.*X;XtX*X0XwX*X0XwXeX:X*XR.j.k.i.l.m o.&.+.+.=.%.&.@.@.%.#.c x *.b a b ",
"+XxXxXlXxXlXhXhXhXhXaXaXaXaXw.I.k.d.y.2XrXtXHX7X3X7X].-XS..X-XrX[.*XrXwXwX0XqXwX;X{.k.x.z.G.-.v x c x O.@.@.@.&.+.O.x v l z w C ",
"+XzXzXxXvXjXlXcXjXjXjXjXdXfXfXq.d.d./.5X7XFXFX:X-X;XN.N.OX XoXAX8X.Xg.d.S.0X0X0X0XqXG.p.a.Z.G l u l l c c @.@.%.%.&.O.v l w & e ",
"+XxXxXxXvXvXkXkXjXkXkXjXjXdXfXe.d. X5X7X2X).y.V.m.x.x.&X5X5XAXDXDX' m.~.x.].F.K.%X0X0XqXL.L.| l u l l l c &.@.&.&.+.c b w w q e ",
"+XxXxXbXvXmXMXmXkXMXkXkXkXjXjXw.T.<X!.].j.T X.y ! 8X~.8XFXFXDXPXGXC.#X_ #X:X2XF.C.Z.0XqXwX0XY.C u x b l c +.@.@.@.%.o.k w q q q ",
"+XxXbXbXmXmXvXvXBXBXMXMXkXkXjXxX,X3XE.g.g.$XY @X' DXSX7XFXJXKXPX,X#X#X# V.$X7X*XF.C.F.qXwXqX].Z S c *.l v x O.#.@.+.x k w e e q ",
"+XxXbXmXmXmXVXNXMXCXVXBXMXMXMXnX7X7X3XSX&X$X# ` [ 6X7X8X7XKXKXJXXXg.$X#X:XeX2X{.{.D.G.0XwXqX{.J l l c b v c x x #.x k k w q e & ",
"@XbXmXmXVXCXCXCXBXCXBXCXBXBXmX&X<X-XJXPXSX:X..#XV.n.>X8XeXHXHX;XM.3X3XeX9XqX XD.D..XD.{. XwX2XP l c l b b b l x l x k k q q & & ",
"q.q.r.+XbXNXVXVXVXCXCXCXCXCXnXV.E.8XDXDXKXJXDXDXoXOXOXz.G.z.qXHX;X2X3X;XD.*X;XD.B..X].S..X;XqX8.k l z l b u v l u w u w w q & & ",
"..q._ 8.w.zXlXcXbXZXCXCXCXZX@Xc.m.!.7X7XSXAXKXDX5XXXt.t.z.t.P.SXrXrX2X-XB.x.].].2X-X_.!.].*X*X} z k k l l u u l u w u w w q & & ",
"` { _ 8.8.8.8.r.GXgXw.fXkXNXq.g.[ v.=XSXAX8XSX6XSXSXP.y.t.P.5XHX7X5X8X3X<XB.].-X|.2X2X1X}..X{.R.b x z w u u w r w q q q q & q & ",
"| _ ) _ ( 8.( 8.9.9.8.,.6.gX{ ^ ^ v.v.)._.8X7X,XAXDXDXSXP.5XFXSX1X;X7X7X7X;XN.g.x. X5X5X2X].{.[.H v *.u u z r u q & & < q & & & ",
"_ ' ` ` ) 8.E P :.E I :.;.:.9.g.^ c.m.n.`.4XSX4XoXSXAXXXOXOXoX6X2X X2X7XSXSXR.d.g.M.].2X X].F.0X0.i b u u r 1 w a e q q & & & $ ",
"_ ` ` ( ( ) P E :.I I K K K ) c.v.h.g.[ Y.4X4X6XAXoX4XOX| k.OX4X<X}.].2XFXSX1X<X|.OXE.Q. X.X{.[.D.F b u r q w a q q m & q & $ & ",
"W ) ` ( E E E E W I I I K h G Y.T.~.[ T [ 5X5XXX5XoXXXI.Q Q j.R.R.1X5X.X6XAX1X`.Q.(.(.E.].S.D.F.F.j.h u r r a q g & $ & q $ & $ ",
"` _ ) E E 8.E W G I F N I g 7 } v.j.[ [ R.<XXX|.'.(.y.I.XXP.Q j.k.M.|.1XAXXX^./.'.(.|.Q.M.D.F.A.L.F.E u i w & & y = $ $ & $ & & ",
"0 R R ) 9.9.9.9.W I 9 7 : > : W ^ [  .`.' h.Q.<X_.j.y.AX5XSX1XR.} d.f.y.XX4X,X(.).}.Q.E.E.M.C.C.Z.L.v.m l q & $ $ q e $ $ & & q ",
"9 H W ) `.FXUXKX9.W 8 : + : - 9 [ } ^.[ ' I.| `.~ [ XX1XrX X5X5X|.(.R.XX,X1X_._._.XX|.!.N.S.C.Z.A.K.F.} A u r q q g & = q & r q ",
"H R R _ :XLXIXLXI.I 8 @ + + + : | b.n.h.'.! Y.} ] g.v.}.OX|.5X(.(.XXXX4XXXXX<X_.|.|.).(.M.B.D.A.A.%XA.a.W C z q q 1 r & = q q & ",
"0 R R W 9.9XJX7X| W 7 : + + X s 8.f.f.R.] } } h.~ ] ~ b.OXP.(.y.f.^.XX1XXX_.1X|.W.R.b.E.].D.D.F.A.L.K.Z.N.B z r z w & * & q & & ",
"0 G E W W 0.} ) Y 9 : : - X = I N / f.v.^ Y.} j.[ ~ ! ~ ~ ~ ] ] I.,X4X,XXX_.>X&Xn.n.m.n.N.D.D.C.A.%XA.%XK.} t i u w $ q M q & e ",
"0 9 W 9 R Y 9 9 8 7 > : - > - > - F 0.^ h.b.n.n.c.[ ] ! T Q | 0.`.oX>X>XXX).U.'.b.U.n.E.T.B.N.C.A.$XL.K.A.a.H i u q = = w w e = ",
"8 9 9 7 8 9 8 9 8 : : : - > - > - h H | f.[ h.~.b.[ [ g.c.'.4X6X4X,X<X`.R.m.} m.U.~.W.E.N.x.x.D.F.C.A.A.s.a.[ D c r & e k x w e ",
"# 8 8 7 9 8 8 : : - 4 - : j = > - > = E [ ] [ [ [ ~ ^ ] ] ' | | } 0.0.} ' } [ Y.~.B.!.B.D.D.*X*X$X%X%X%X%XF.Z.0 i r t w $.k k w ",
"8 8 7 8 8 @ @ : : : + X + - - - = = X R [ [ [ ^ ^ ] ^ X.X.}  .{ '.'.`.^.^.W.W.~.b.v.v.D.&XD.D.D.F.C.a.a.Z.K.K.~ o . $ a v b u v ",
"@ : 7 : : : : - + + - X X X - - X = = E ^ [ f.[ [ c.c. .'.>X^.&X>X4X1X_.&X=X_._./.n.B.N.].~.D.D.x.i.C.C.a.K.H.a.y .   . e r $ e ",
"+ : - : - - > + - - + X X X = X X X @ W ! ^ m.n.m.m./.>X4X6X6X7X&X=X|._.&X|.!.W.!.v.f.n.].}.B.x.p.Z.$Xp.A.A.H.J.T O   $ h $ $ . ",
"O + + + + - 6 + X - X X X X = X O X X R [ ^ c.V.W.).(.`.1X<XW.=Xm.~._.(.T.Q.m.E.V.m.E.}.].-XD.x.p.p.$X%X%XL.H.J.p.#   o :.. . % ",
"O + X @ + + - = X - + X . . . . . X O Y f.^ [ n.~.&XW.~.).!.n.c.n.n.[ Y c.U.!./.W.n.n.x.x.F.x.g.N.%X0X$X%XH.J.J.s.y   O = .   o ",
"O + O X + + X + - + = = X X   O . . X [ n.B.v.c.~.`.=XU.f.^ m.).} } X.W.!.b.W.`.`.'.n.g.g.C.A.F.F.$XS.F.Z.p.i.H.s.u.O     O     ",
"  + O + X + : X - - - > - O X . X . X Y.W.&X!.)._.~.~./.!.~.h.m.>X`.`.).!./  .!.=X>X!. .d.x.g.g.g.x.*X*XC.p.a.H.s.p.8 O o       ",
"  . O X X + X X + - : - I X   O   . O { (.8X6X<X).E.U.W./.1X^.U.).1X<XE.} |  .n.n.~.E.v.g.N.} c.N.D.[.C.p.p.p.a.J.s.y o #       ",
"  X O O + - : @ + : : : - X . .       / n.~.<X8X8X=X-X~.} Y.<X7X8XW.Q.f.h.T.j.x.[ g.[ j.x.Q.!.E.V.C.C.C.A.C.F.a.s.J.u.O         ",
"  O O X + - : : 8 : N : + X X   O   o / v.m.&X=X<X=XW.!.W.n.f.~./.).U.b.B.h.] g.! ! } b.Q.Q.~.E.M.g.u.x.x.C.Z.p.a.J.p.0 O O   O ",
"  . . + X + - 8 | f.8 : + X . O O O O R g.g.~.=X<X<X1X8X1X`.m.y.U.Q.m.B.N.N.E.j.(.}. X|.E.b.j.x.g.x.N.D.D.[.C.Z.s.J.s.y         ",
"  . . X   X : 9 R.JXY 8 X .   +       R V.g.[ n.<X}.!.=X<X1X).W.Q.n.}.Q.E.c.m.n.}.x.f.f.~ b.M.].v.M.N.N.D.D.A.A.s.A.J.u.O   O O ",
"  X . . ; . ; : Q I.8 7 @ + . X       9 V.!.).n.B.N.V.n.~.Q.T.B.m.R.Q.v.T.W.=X|.Q.n.[ ] [ h.v.f.[ c.b.].*XC.D.A.H.H.s.i.#       ",
"    . . O O . + 7 8 : ; . 6 O 6 O     0 c.n.!.1X~.v.v.v.g.v.j.f.n.=X|. Xk.j.=XQ.Q.=X|.).Q.U.n.R.W.(. X].V.D.C.p.%XJ.J.s.y       ",
"          O   . X X X ; . %       O O R  .g.m.).<XU.f.c.[ Y Y ' Y.E.}.} j.|.Q.).|.|.T.n./.=X).}.].E.N.v.B.M.x.C.H.s.J.J.T       ",
"                                O     #  .n.m.n.U.1X/./.y.`.`._.b.j.' /.>X|._.=XQ.b.(._.W.m.U.b.h.T.j.E.E.V.C.C.i.a.s.J.i.O     "
};
