/* XPM */
static char *_53763e629a64872cf7d799efd9d502blZI0fe3m98SFI8Hj[] = {
/* columns rows colors chars-per-pixel */
"64 64 241 2 ",
"   c #0E1318",
".  c #13141A",
"X  c #15191C",
"o  c #1B191D",
"O  c #171519",
"+  c #080D13",
"@  c #221B1C",
"#  c #171B23",
"$  c #241E25",
"%  c #1C2329",
"&  c #1B2330",
"*  c #23222C",
"=  c #282528",
"-  c #342C2A",
";  c #2C2A32",
":  c #292A35",
">  c #322C34",
",  c #362E36",
"<  c #35333B",
"1  c #373337",
"2  c #383732",
"3  c #45393A",
"4  c #49433E",
"5  c #5E4D3D",
"6  c #6A5538",
"7  c #664F34",
"8  c #393945",
"9  c #493B45",
"0  c #543E40",
"q  c #3B4248",
"w  c #3F4F5F",
"e  c #3F4E61",
"r  c #4C4A4B",
"t  c #484447",
"y  c #564B49",
"u  c #5C544B",
"i  c #5B574D",
"p  c #494A56",
"a  c #564956",
"s  c #555353",
"d  c #5B5453",
"f  c #5E5B55",
"g  c #5C5A5B",
"h  c #585559",
"j  c #4C5259",
"k  c #695949",
"l  c #725C4A",
"z  c #625B54",
"x  c #625D5B",
"c  c #675A55",
"v  c #725C51",
"b  c #73624D",
"n  c #796449",
"m  c #64625D",
"M  c #6C645B",
"N  c #6F685C",
"B  c #696055",
"V  c #7B6B54",
"C  c #736B5D",
"Z  c #7C6C5B",
"A  c #756557",
"S  c #7D725D",
"D  c #495668",
"F  c #535B6C",
"G  c #5B5C66",
"H  c #575C71",
"J  c #4E5D71",
"K  c #615F65",
"L  c #5B636B",
"P  c #586376",
"I  c #576A73",
"U  c #646263",
"Y  c #6D6A65",
"T  c #64646B",
"R  c #6D6B6B",
"E  c #686768",
"W  c #746C62",
"Q  c #7B6D65",
"!  c #726D6B",
"~  c #786B67",
"^  c #7C7265",
"/  c #74726D",
"(  c #7C746B",
")  c #7A7568",
"_  c #6B6D74",
"`  c #676C79",
"'  c #726F78",
"]  c #6E717A",
"[  c #747373",
"{  c #7A7573",
"}  c #7B7975",
"|  c #74737B",
" . c #7A777B",
".. c #7C7B7B",
"X. c #76797C",
"o. c #5F625B",
"O. c #826E57",
"+. c #83735C",
"@. c #8A7559",
"#. c #837463",
"$. c #837866",
"%. c #8B7B63",
"&. c #847A6C",
"*. c #8C7D6C",
"=. c #847568",
"-. c #847B74",
";. c #827D7B",
":. c #887E75",
">. c #917E66",
",. c #7E807F",
"<. c #95846C",
"1. c #99896F",
"2. c #95846A",
"3. c #8C8273",
"4. c #84827E",
"5. c #8C847C",
"6. c #848175",
"7. c #9C8C73",
"8. c #948A7C",
"9. c #9B8D7B",
"0. c #928675",
"q. c #9F9176",
"w. c #9F917A",
"e. c #89816E",
"r. c #A08E76",
"t. c #A09177",
"y. c #A2947C",
"u. c #A5997E",
"i. c #687486",
"p. c #737682",
"a. c #767985",
"s. c #7C7C83",
"d. c #7B7D8B",
"f. c #747889",
"g. c #767C92",
"h. c #6A768A",
"j. c #827E85",
"k. c #7B8389",
"l. c #7B8497",
"z. c #848384",
"x. c #8A8582",
"c. c #8D8A85",
"v. c #84848B",
"b. c #89868B",
"n. c #8B8A8C",
"m. c #87888C",
"M. c #938C84",
"N. c #9A8D82",
"B. c #928E8A",
"V. c #9C9284",
"C. c #94918C",
"Z. c #9C958C",
"A. c #9E998D",
"S. c #868994",
"D. c #8C8C93",
"F. c #858A9B",
"G. c #8B8D9B",
"H. c #838596",
"J. c #918E93",
"K. c #8E919C",
"L. c #8C9294",
"P. c #949494",
"I. c #9B9692",
"U. c #9C9A95",
"Y. c #94949A",
"T. c #9C9B9B",
"R. c #979899",
"E. c #8E908F",
"W. c #A29583",
"Q. c #A59984",
"!. c #A1968B",
"~. c #A49B8C",
"^. c #AA9D8C",
"/. c #A99C85",
"(. c #A49C93",
"). c #A99F92",
"_. c #A39E9A",
"`. c #A99F9A",
"'. c #ABA18E",
"]. c #A6A18E",
"[. c #ABA294",
"{. c #A4A19C",
"}. c #ABA49B",
"|. c #AEA99B",
" X c #A6A094",
".X c #B2A494",
"XX c #B3AB9D",
"oX c #B9AD9D",
"OX c #B2A89A",
"+X c #B3A995",
"@X c #888EA2",
"#X c #8B95A8",
"$X c #9294A3",
"%X c #9D9CA1",
"&X c #969AAC",
"*X c #9A9DAD",
"=X c #9497A9",
"-X c #939DB2",
";X c #97A4B6",
":X c #9EA0A4",
">X c #A3A2A2",
",X c #ABA5A1",
"<X c #ADAAA3",
"1X c #A8A7AB",
"2X c #B3ACA2",
"3X c #B2AAA2",
"4X c #B8B1A3",
"5X c #A4AABA",
"6X c #B7B7BC",
"7X c #AAB6B8",
"8X c #8DA09E",
"9X c #C2BAB2",
"0X c #A7ADC3",
"qX c #AAB4C7",
"wX c #B3B9CA",
"eX c #B5BCD3",
"rX c #ACBBD0",
"tX c #BBC5D8",
"yX c #B3C1CA",
"uX c #C4CADA",
"iX c #CBD2DC",
"pX c #D6D6D9",
"aX c #CCCBCD",
"sX c #C6CDE3",
"dX c #CAD3E5",
"fX c #CCD5E9",
"gX c #CAD6E9",
"hX c #D3DBED",
"jX c #D6DAE5",
"kX c #D3DBF1",
"lX c #D9E4EB",
"zX c #DBE4F4",
"xX c #DEEBF4",
"cX c #D7E3F5",
"vX c #E2ECF6",
"bX c #E5F2F9",
"nX c #FEFEFE",
"mX c #FCFCFC",
"MX c #F8F8F6",
"NX c #EDEBEA",
"BX c #E6DED3",
/* pixels */
"nXnXmXmXnXnXpXQ #.Q &.V V O.@.@.#.&.5.M.C.c.x.x.x.P.aXlXNXmXmXmXmXnXnXnXmXMXMXNX8 #         o X . X o X .   & P wX6X1Xx.=.Z Z v ",
"nXnXnXnXMXMXXXZ ~ Q &.Z O.O.>.>.3.0.5.N.V.B.M.n.c.X.n.1XiXMXMXmXMXnXnXMXmXnXnXR.#       . # O . . X   X % 8 L %XP.z.{ Q Q Q b k ",
"mXnXMXnXMXNXQ k v =.=.=.O.#.*.9.8.N.8.M.B.x.x.c.x.c.b.z.n.>X6XNXnXmXnXnXMXmXpX%   #     X # .     X . : T G.I.} ( W A Z ^ #.Z b ",
"nXnXnXmXMX9Xk k c Q ( -.=.=.=.0.8.Z.Z.Z.B.z.x.c.c.n.b.z.b.n.E.1XaXMXnXMXnXmXk.% #     X #   . # # % 8 p.R.;.( ( C ^ =.=.#.&.=.#.",
"nXnXnXMXBX#.k l v ~ ~ =.=.=.~ :.V.!.(.U.C.c.n.D.m.E.Y.J.Y.D.v.v.n.6X6X6XlXpXF 8 q & # % # % 8 p D | L.x.} M ( ~ S ^ #.#.$.e.e.&.",
"MXnXMXnX9Xl l k c M ~ =.Q Q =.;.M.Z.V.C.R.C.I.Y.%XP.J.D.D.J.P.z.s.s.n.z.n.:X8X#XF.p.` ` P ] H.$X-XY.x.) ^ ^ =.~ ^ Q O.#.#.) &.3.",
"nXmXnXMX/.l n l c c M M M M ~ ;.5.c.8.M.I.R.R.R.K.Y.Y.Y.J.D.J.b.D.z.,.X.z.m.n.m.D.m.G.P.D.m.m.v.m...} { ) ) ^ *.$.#.#.+.+.S +.*.",
"nXmXmXpXZ l l v k z v c u y ~ -.-.8.c.C.U.P.T.R.%X%XY.R.R.J.n.n.v.z.4.4.[ z.z.n.v.v.v.b.b.z.;.4.6.4.x.;.{ 3.$.%.&.%.%.O.+.+.@.V ",
"mXnXmX9XM M u v z y u d y 0 d ~ ;.x.P.I.U.R.T.T.P.U.R.P.P.E.E.n.D.v.z.;.} ;.x.v.z.b.b.b.m.m.v.s.4.4.5.5.c.;.&.$.>.%.%.O.O.@.6 l ",
"mXMXMXI.W v A W Y x d y 0 9 a ! 5.c.C.R.I.R.R.T.T.R.R.R.P.P.P.D.D.b.b.;.-.;.z.z.z.z.v.b.n.n.m.v.4.4.c.c.c.5.:.&.@.O.V O.O.7 6 l ",
"nXnXNX:.Q Q *.-.:.! K c a d ! x.n.P.I.R.R.R.T.T.T.%X%XT.R.Y.Y.P.J.D.b.j...;.z.z.v.j.z.v.m.m.m.m.k.4.4.c.c.5.6.$.V V n 6 7 7 l z ",
"nXMX9Xz.:.x.x.x.;.-.-.j.x.b.n.J.R.R.R.R.R.T.{.>X:X:X:X%X%XT.R.P.J.J.n.x.;.5.b.b.z.z.v.v.m.S.S.G.m.n.x.4.x.c.e.$.V O.6 7 7 7 N i ",
"nXNXC.x.j.M.x.x.M.n.B.B.Z.I.%X_.T.T.T.R.T.T.{.>X{.>X>X{.T.T.U.P.P.J.n.n.x.c.B.J.n.n.v.v.m.m.L.G.L.D.b.x.c.x.6.) S b 6 6 7 k Y h ",
"nXaX4.x.M.M.B.B.B.Z.(.T._.T._.R.T.T.T.>X>X_._.`.U. X{.{.{._.{.U.R.B.P.B.n.M.B.P.B.n.c.b.m.S.m.F.$XK.E.m.m.4.6.( C B k 6 5 c k.j ",
"MX2Xc.n.B.B.Z.I.). X`._.I._.%X,X{.T._.{.{._._.>X{.{.{.{.{.{._._.(.I.E.E.B.C.C.C.P.B.n.n.E.D.S.F.L.G.G.n.m.,.( ^ c B k i M ! T.q ",
"pXn.n.C.x.(.Z._.). X`.,X,X,X1X`.,X{.{.>X{.{.,X,X>X,X{.T._.{.{._.{.C.C.E.n.C.Z.I.Z.I.C.R.Y.P.P.L.F.G.D.L.m.X.R Y f B i m j.| 7Xq ",
"*XP.c.M.A.I.!.A.(.`.}.,X3X}.}.,X}.}.|.2X<X,X|.}.{.,X,X{.{.{._.`.{.U.I.C.B.B.I.(.A.U.P.I.P.Y.P.E.$XS.K.S.v.X.U f i d a p.5XI k.2 ",
"n.n.C.A.(.A.!.[. X X[.}.}.}.[.}.[.}.}.}.}.[.}.}.>X<X>X}.{.{._.`.{.{.U.C.B.I.I.I.A.A.U.P.Y.R.R.Y.K.G.K.k.k.X.x u 5 y j.7XlXk.: X ",
"I.Z.A.(.!.Z.!.].'.[.[.[.[. X X[.].~.(.(.).`.}.}.<X>X,X{._._.{._. X}.{.U.A.I.U.Z.].U.U.U.R.P.R.T.Y.Y.Y.F.H.p.f y 2 4 4.pXbXyX: + ",
"C.C.V.!.!.~.~.[.[.[.[.[.`.[.}. X X}.).`.{.<X<X<X<X>X,X{.).`.}.(. X}.}.).!.!.A.A. X(.U.U.R.R.L.R.Y.P.K.L.F.| r 2 4 t  .pXxXbXk.  ",
"B.V.Q.~.).).^.^.`.[.[.}.`.`.}.}.3X`.`.}.<X,X,X_.<X>X`.`.(._.`.(.`. X|.}.].!.A.!.}.(.I.U.I.U.P.E.P.P.K.K.$Xk.h 2 2 4 T.lXbXxXlXI ",
"U.(.~.~.!.!.!.~.).[.`.}.3X,X3X`.3X3X}.`.}.,X}.,X X).U.(.(.(.)._.).).).|.[.~. X[. X`.I.Z.U.U.P.P.P.R.R.L.K.G.[ r 4 t 1XhXbXxXbX,.",
"~.~.!.Q.!.!.~.).^.(.).}.}.3X,X3X}.}.`.(.V.V.!.(.(.!.V.V.Z.(. X X[.[.[.[.[.[.|.|.,X XA.M.C.U.R.P.b.n.P.L.L.K.v.G 4 r R.iXlXbXxXl.",
"(.!.Q.~.(.(.~.!.^.^.)..X}.3XOX|..X`.W.:.#.Z #.=.W.Z.M.N.!._. X}.}.}.|.'.].[.<X<X,X XZ.c.c.C.I.I.n.z.n.R.K.K.F.| i d L.iXxXbXbX8X",
"~.]. X~.!.!.~. X X[.}.|.OX3X3XOX).N.A 3 4 t y 3 y 9.8.W.W.~.XX}.OX}.OX}.OX|.XXXX<X XM.8.6.5.Z.R.L.c.6.c.Y.$XG.v._ T s.uXjXxXbX1X",
"A.A.~.A.Z.Z.A.A.].[.[.|.XX2X4XOX.X-.3 O O % @ = - k 9.W.~.).XX}.3XXXOXOXOX|.XX|.].A.V.5.&.5.V.C.Y.n.,.4.b.D.Y.k.k._ _ 5XxXlXxX7X",
"A.!.A.Z.A.Z.(.A.(.[.}.OXXX2X2XOX(.N.u @ * 9 9 $ t 4 ~ 8.Z.^.}.OX4X2XXXOX|.|.|.|.].9.e.C C 3.A. XP.C.z.| { 4.n.D.z.s.` $XpXlXiXk.",
"(.(.(.!.!.(.(.(.).}.|.OXXX2XXXOX.X!.-., # # 8 ; x 3 3 W 8.~.(.<X3X}..X}.|.}.[.].].8.^ z i ^ 6.8.c.P.n.s./ { z.D.m.v.] S.tXiXj + ",
"(.(.~.!.~.).).).}.}.}.XX}.XXXXXX).).~.:.r = @ # 1 = = u =.Z.(. X}.{. X}.|.}.(.A.V.6.B 4 - 3 3 c ,.x.v.z...) X.s.z.x.k.S.iXyX# L ",
"(.(.~.~.~.(.).[.}.}.XXXXXXXXXXXX.X.X).V.5.! a 3 = O t y z M.).`._._._. X|.{.U.E.c.Y 4 - @ o @ 2 i Y z.v.z.{ R } s.k.k.:XlXk.: l.",
"(.).~.~.^.~.`.`.}.}.3X3X3XoXoXoXoX[.+X(.(.5.4./ d r / Y Y n.`.{.T.T.U.{.>X{.R.n.} r = = 2 o O O - i } z.s. .Y } } z.k.;XyXq D k.",
"(.).'.~.~.^.[.}.}.OX3X4X4X2X2X4X2XXXOX[.U.Z.M.;.{ ;. .c.B._._.>XU.I.P.U.>X>XR.D.[ t @ X < o o . @ 4 W } v.s.R ) [ [ k.5XiXD J D ",
"(.~.^.^.~.^.).).+X+X+XoXoXoX+X4XoXXX|.}.].A.C.C.n.E.E.P._.>X,X>XT.R.P.R.%X%X$XK.X.G 2 . o . . @ O t W / ) } [ [ R ] ] qXkXyXi.I ",
"~.^.[.'.).^.)..X+X+XoXoXoXoX4X+X4X4X2X|. XU.A.C.E.E.A.U.T.>X:X%XT.R.R.Y.Y.T.Y.G.v.[ j > ; o . $ r x Y W / } } / / R | tXhX0XD k.",
"~.^.[.'.^.^.^.).[.+XoXoXoXoX+X4X4X4X2X<X}.T.A.R.Z.U.T.U._.>X%X%XT.Y.J.J.P.Y.K.D.H.s.' G U h h K { ! Y Y / } X.R / T a.uXsX@XD ;X",
"~.^.[.^.^.^.^..X[.+X+XoXoX4X4X4X2X<X<X,X{._.T.T.U.T.{.T.T.%X%X%XY.Y.J.b.S.K.G.S.H.l.s.| X.X...z.;.[ ! { } / ,.[ R L k.dXyXi.i.rX",
"~.^.^.^.).^.)..X.X.X+XoXoX4XoXXX4X2X<X<X1X<X>X{.U.U.U.U.R.T.%X%XD.D.b.v.v.G.G.S.l.v.d._ [ [ -.;.{ ! [ 4.4.} } / Y L *XhX;XJ #XtX",
"!.!.W.W./.^.^.^..X.X+XXXXX4XXX4X4X2X2X<X<X<X>XT.U.{.U.R.I.T.$XR.J.D.v.v.k.H.H.H.s.l.v.[ R ! { { ! ! X.z.z.../ Y U T yXuXl.J qXkX",
"Z.V.W.!.Q././.^..X.X+XXXXXXX2XXX<X2X2X<X<X<X{.U.U.(.(.R.R.T.T.Y.P.n.s.s.d.l.H.H.d.d.v.X.[ R ! ! ! { ;.z.k.} R m G v.uXrXI l.tXcX",
"V.W.~.~././.^.^.^..X.X+XXXXX2XXX2X2X4X<X<X|.{.{.U.U.A.R.I.T.R.P.Y.v.s.d.j.d.H.l.d.a.f.s.| _ ! E ! ..m.z.4.X.Y Y T 5XtX-Xe ;XgXcX",
"W.W.W.Q.Q.Q.Q././..X.X.X.X+XXXXX2X2X2X1X3X,X`._._.T._.>X_.%XT.Y.J.b.s.' j.j.j.j.j.f.j.f. . ._ R } ..4.4.4.| R g g.dXqXi.i.wXhXxX",
"V.W.W.W.W.w.y.W.u.^..X.X.X+XOX.X<X2X2X2X1X,X_._.>X_._.>XT.Y.T.Y.K.s.' T H i.f.j.f.f.p.f.p.s. .' { -.,.4...[ R K $XsX;XJ @XeXzXbX",
"w.9.W.W.W.W.V.y.u./.'.'.|.[.+X|.3X3X<X<X,X{._.T.{.>X>X{.%X%X$Xj.' F p p a H i.f.g.j.f.f.j.j.' p.} 4.4.,.} / E E 5XtXg.D 0XfXxXbX",
"N.W.W.W.W.W.u.Q.u./.'.[.[.|.|.|.,X|.,X<X,X>X{._.{.>X>X:X>X1Xb.G 8 8 8 8 8 8 9 H h.j.g.f.p.j.p.' ......} { R U T 0XuXi.H qXcXzXbX",
"W.N.y.W.y.y.W.y.u.Q./.'.|.[.}.}.|.}.>X,X,X>X{.{._._.>X>XT.n.h ; $ 8 9 a a a 9 9 a f.g.g.h.f.' -.[ { / / / E g _ tXtXI i.qXkXvXvX",
"y.y.9.w.y.y.u.y.t.y.Q.~.).[.}.|.}.}.}.,X,X{.{.T._._.R.>XP.K , $ > , 9 9 a a a 9 9 H j.g.p.p.' ' [ Y Y M Y g G a.dXsXh.i.qXhXvXvX",
"9.9.w.t.t.y.y.u.t.w.w.~.~.[. X|.}. X X,X}.{._._._._.U.R.n.s - , 3 0 9 0 9 9 0 0 8 9 g.j.i.T T R Y m N B z g T =XkXsXl.I 0XhXvXvX",
"r.r.t.t.t.t.r.r.y.y.u.Q.].(.).}.}.`.{.}.,X{._.{.(.>XU.C.x.d 2 9 0 3 $ , 9 9 9 0 , , p.f.' G K c x f B f h g f.eXkXgXF.F 0XhXvXvX",
"W.y.9.7.1.7.r.7.7.y.u././.'.].[.`.).,X,X>X,X_.`._.B.(.M.x.! = , 8 $ O $ 9 9 3 3 > : K f.p.K g x g f x f u E $XeXjXfX#XJ ;XhXxXxX",
"9.9.w.7.1.7.7.7.7.t.y.u.'./.~.~.Q.V.`.|.,X,X(.(.(.B.B.M.x.! < < $ $ $ ; 1 , , $ > > K a.p.K g z f z f d K j.=X0XfXhX-XJ -XgXxXxX",
"7.r.t.7.7.1.1.1.q.t.t.y.Q.^.]. XQ.V.!.}.,X{.`._.Z.`.Z.j.;.[ h ; > : 8 1 , , , $ $ , ` a.p.K f f z f d K j.G.*X0XfXkX5XJ #XsXxXxX",
"2.r.y.y.r.r.1.1.2.2.1.q.t.Q.~. X^.w.V.(.`.}._.`.(.C.M.5.;.U j < ; ; > 8 : > ; X & 9 ` p.' K h f z d x p.G.G.&X0XsXkX0XD #XsXzXxX",
"2.1.r.r.r.1.2.2.@.2.1.t.u.Q.~.'.^.N.N.(.{.`._.U.B.B.B.~ R K s < ; * $ * & : $ * p G | _ T L f f z d ' =X=XH.=X5XsXcXqXJ l.tXcXxX",
"1.7.7.t.r.r.1.1.2.2.2.q.t.u./.'.).W.N.Z.(.(.(.I.Z.j.;.~ K p < 8 , > * * : < < p U _ _ T T U B f f U D.5X&XF.*X5XsXkXrXJ g.tXcXxX",
"r.r.7.r.r.r.7.1.2.2.e.@.2.1.w.Q.[.~.V.V.N.C.!.V.j.;.{ K r 9 < : * 8 8 8 8 t p E Y R ! E E o.m g R s.$X5X*X#X0XeXsXcXrXi.i.rXkXxX",
"t.r.1.7.r.r.1.1.7.2.@.+.2.1.q.u.Q.].!.Z.w.0.8.3.:.:.M K a r t p t 9 8 8 8 t f Y / / Y U f s m m f.H.@X*X*X$XwXuXgXcXrXi.i.rXkXcX",
"y.y.y.q.7.t.7.<.<.%.V +.@.1.7.1.7.).^.!.!.V.9.0.8.3.N u 9 < , 8 : < 8 t r r h / / R E E x f U ] g.j.@X-X-X-X=X0XtXkXsXg.J 0XgXcX",
"Q.u.u.t.t.7.9.7.0.<.*.#.+.+.*.1.8.W.V.~.[.W.9.9.9.M.5.4.R h 9 1 < ; 2 t s g L T ) Y K U x f E ` h.g.j.-X&Xj.j.&XrXkXgXl.J ;XgXcX",
"W.Q.u.u.y.t.q.9.7.*.%.V b n n S *.7.9.!.~.~.~.9.0.0.8.5.5.} ~ W g x U m m g Y ( W E x M f o._ H i.H j.-X&Xj.j.&XwXkXdXl.J -XgXcX",
"8.w.Q.'.Q.y.9.7.7.%.%.Z V @.V V +.*.*.9.N.~.^.V.8.8.8.3.5.8.5.5.4.-.( ! E M M Y m m E x o.U L F D H g.-X0Xj.=X*XwXfXdXl.e l.sXcX",
"3.9.W.~.Q.W.t.9.w.<.9.%.Z Z b V V V V *.0.9.9.A.A.M.8.5.6.3.-.=.&.W N N M N N c K c K d K T D H H H h.j.-X@X@X-XrXgXkXl.e l.tXgX",
"( 5.V.Q.Q.Q.y.w.5.0.8.e.S +.V S A A b S ) e.8.9.V.9.8.5.6.&.( =.W C ) ^ N N W C ~ M c d T h.e D H H g.&X-Xl.j.@X;XgXcX;Xe g.rXgX",
"M &.M.V.V.W.y.w.w.8.e.%.S V b 6 V V k b V e.e.e.3.0.8.5.e.) ) ) ( ^ e.) W W W C A M a a j.i.e H H H f.j.;Xl.l.l.0XgXkX;Xe h.qXrX",
"u W 5.8.9.W.V.q.8.3.e.e.^ +.S V C V 5 k b b V S ) $.) C N N N S C C ) ( W C W C a ~ c ' p.H i.H H i.g.@X-X-Xl.l.0XgXgXrXe i.-X-X"
};
