/* XPM */
static char *_4195e2d70364fb9db44ca3c1968da5cCOSPTn0XDyFP4yV9[] = {
/* columns rows colors chars-per-pixel */
"64 64 256 2 ",
"   c #040201",
".  c #0C0501",
"X  c #0B090A",
"o  c #150A06",
"O  c #17120C",
"+  c #191815",
"@  c #190E11",
"#  c #36190D",
"$  c #271816",
"%  c #341C15",
"&  c #291109",
"*  c #292219",
"=  c #372414",
"-  c #371D24",
";  c #251E26",
":  c #2D2726",
">  c #362825",
",  c #3B332B",
"<  c #3A3633",
"1  c #2F3130",
"2  c #1D2124",
"3  c #451C15",
"4  c #462818",
"5  c #512A1E",
"6  c #4A2C17",
"7  c #452926",
"8  c #44342D",
"9  c #4B3B2C",
"0  c #473528",
"q  c #563829",
"w  c #453630",
"e  c #453932",
"r  c #4D3B33",
"t  c #4D3E39",
"y  c #473936",
"u  c #513E35",
"i  c #513E39",
"p  c #5A3839",
"a  c #522A2F",
"s  c #643B34",
"d  c #61352D",
"f  c #59412E",
"g  c #4D423A",
"h  c #4F4136",
"j  c #524235",
"k  c #53433B",
"l  c #59443C",
"z  c #5B4A3C",
"x  c #584839",
"c  c #5B543F",
"v  c #67442C",
"b  c #694838",
"n  c #78533A",
"m  c #734C38",
"M  c #6A3A49",
"N  c #783E54",
"B  c #493E42",
"V  c #3F4147",
"C  c #4A4A48",
"Z  c #564A43",
"A  c #5C4D43",
"S  c #584B46",
"D  c #4D514D",
"F  c #5E5045",
"G  c #55524E",
"H  c #5C534B",
"J  c #494E54",
"K  c #524D51",
"L  c #4C5354",
"P  c #4E5459",
"I  c #535354",
"U  c #535459",
"Y  c #565A5C",
"T  c #5B5B5B",
"R  c #5A5753",
"E  c #634B43",
"W  c #625146",
"Q  c #63544B",
"!  c #64594D",
"~  c #6B5A4D",
"^  c #6A5549",
"/  c #775848",
"(  c #794556",
")  c #645B53",
"_  c #6B5C53",
"`  c #665B57",
"'  c #755A55",
"]  c #6F474D",
"[  c #6C635C",
"{  c #696158",
"}  c #736255",
"|  c #74655B",
" . c #7C6A5D",
".. c #7A6558",
"X. c #7E6248",
"o. c #585B61",
"O. c #7A5464",
"+. c #5D6365",
"@. c #6B6764",
"#. c #746B65",
"$. c #796C65",
"%. c #7C6E69",
"&. c #746865",
"*. c #7C736C",
"=. c #78726B",
"-. c #7B7875",
";. c #7A6D74",
":. c #5E635D",
">. c #865E3E",
",. c #8C643E",
"<. c #976B3D",
"1. c #823F48",
"2. c #894B58",
"3. c #8C6644",
"4. c #8C6944",
"5. c #846349",
"6. c #8A664A",
"7. c #8C6A4B",
"8. c #866648",
"9. c #916641",
"0. c #936B43",
"q. c #946C4D",
"w. c #986C47",
"e. c #977147",
"r. c #856B5C",
"t. c #876956",
"y. c #916E52",
"u. c #8D735A",
"i. c #977758",
"p. c #8B7149",
"a. c #A27A57",
"s. c #894B66",
"d. c #94556A",
"f. c #A25775",
"g. c #856D65",
"h. c #877468",
"j. c #957A68",
"k. c #856871",
"l. c #847A73",
"z. c #877C78",
"x. c #957A77",
"c. c #9B6574",
"v. c #A6697D",
"b. c #A27C6F",
"n. c #9C836A",
"m. c #8C837C",
"M. c #878177",
"N. c #988678",
"B. c #AB876A",
"V. c #A38B79",
"C. c #AB9279",
"Z. c #B29175",
"A. c #A9825F",
"S. c #AE7788",
"D. c #8A8686",
"F. c #948B83",
"G. c #978D88",
"H. c #9D938C",
"J. c #9B9388",
"K. c #9A9796",
"L. c #968E92",
"P. c #A6958A",
"I. c #B69B88",
"U. c #A29691",
"Y. c #A59B94",
"T. c #A99B96",
"R. c #B29E93",
"E. c #A38B8C",
"W. c #ACA39C",
"Q. c #A9A29B",
"!. c #B3A49C",
"~. c #B7A79A",
"^. c #BCA98F",
"/. c #A9A7A5",
"(. c #B4AAA3",
"). c #B7ACA7",
"_. c #B6B2AE",
"`. c #BDB3AB",
"'. c #BAB1A4",
"]. c #BBB5B3",
"[. c #B9B8B7",
"{. c #B3AFB0",
"}. c #A09FA1",
"|. c #C4AD97",
" X c #C5A88E",
".X c #C5B6AB",
"XX c #C3BDBA",
"oX c #C6BBB4",
"OX c #CCB7AC",
"+X c #BEC0BF",
"@X c #C4C2BD",
"#X c #CDC4BD",
"$X c #CBC4B8",
"%X c #D5C6B8",
"&X c #D5C3AD",
"*X c #BEBDC1",
"=X c #C5BFC2",
"-X c #BCC4C3",
";X c #C3C4C3",
":X c #CAC5C2",
">X c #CCCAC5",
",X c #CCCCCB",
"<X c #C9C7C9",
"1X c #D4CBC4",
"2X c #D2CECB",
"3X c #D6CBC5",
"4X c #CED0CB",
"5X c #D4D1CD",
"6X c #DBD2CC",
"7X c #DAD8C7",
"8X c #D2CED2",
"9X c #D4D4D3",
"0X c #DAD5D3",
"qX c #DADAD5",
"wX c #D6DADB",
"eX c #DCDBDB",
"rX c #D7D6D9",
"tX c #CDCFD2",
"yX c #E4DAD4",
"uX c #E3DDDB",
"iX c #E6DBD5",
"pX c #E1DBCD",
"aX c #DDE1DC",
"sX c #ECE3DC",
"dX c #E4E3DC",
"fX c #E3E0CD",
"gX c #DDDCE3",
"hX c #DCDDF1",
"jX c #E3DEE3",
"kX c #DEE3E9",
"lX c #DBE5F1",
"zX c #E4E3E3",
"xX c #EBE5E3",
"cX c #E9E6EA",
"vX c #ECEBEC",
"bX c #E7E7E9",
"nX c #F0E7E3",
"mX c #F3EBE5",
"MX c #F2ECEB",
"NX c #F8EEEA",
"BX c #F5F2EE",
"VX c #F9F3EE",
"CX c #FAF7E8",
"ZX c #ECEDF3",
"AX c #E5EAF4",
"SX c #F3EDF3",
"DX c #ECF3F8",
"FX c #F4F3F4",
"GX c #FAF5F3",
"HX c #FCF9F6",
"JX c #F4F5FB",
"KX c #F9F6FB",
"LX c #F5FBFC",
"PX c #FCFBFC",
"IX c #F3F9F7",
"UX c #EEF0EF",
/* pixels */
"K K K K K D K K o.K H _ t...^ v m s ] ] g.!..XE.K K T R I Y Y V J o.P J o.L V +.T.P.F.g.t.t.' ] / b r.|.M.F T o.P U Y K U K J V ",
"U U U U U U I U U K H } r./ b f b b / / ..E..X.XR G R T I Y @.+.U @.o.o.+.P L -.!.I.x.g. .2.5.m s s r.R.J.G T o.o.o.o.Y o.o.U C ",
"P P U U L L L L J D ) ../ / f q q s / ....x.|.%X&.G K I D C Y o.I Y Y Y :.:.@.J.~.E.x.r.r.t.] s q s t.V.~.G Y P J U P J J J J V ",
"D L J D C J J J C D {  .5.b 5 4 4 5 ^ r.t.h.~.%Xm.T G ` T I U Y ` Y T Y D D -.'.P.F.j.g.r./ s 5 5 s 2.j.$X{ I L o.o.Y U U o.U J ",
"D D K D D D C D D R #. ./ d 4 3 # # q / / j.I.OXQ.&.G ` @.T T :.@.R :.:.D c m..XN.n.j.r.2.d 3 3 5 d / u.OX$.R G T T R I K T I K ",
"! ) ! ! ) Q ! ! ! }  .u./ q 3 # # # 7 b / p. XOX`.*.S G G G I G R C D L D } C.^.V.n.j.t.b 5 3 3 3 d ^ j.OXh.` ` Q ! H S S S S i ",
"..............| #. .r.r.n 5 = # % 7 ^ ....j. X&X1XY.m.m.z.-.z.-.-.=.-.M.M.C.|.^.P.B.b.u.5.d 3 3 3 p b j.|.j.%.$.g.g.g. . . .' ~ ",
"u.r.r.u.t.t.t.t.%.r.u.t./ q = & # f j.C.n.B. X&XsX7X6XsXdXuXuX9X7X>X7X4X.X&X7XC.Z.C.C.Z.b./ 3 3 3 a b N.|.E.j.l.h.j.j.j.g.g. ./ ",
"5.5.5.5.5.5.5.5.p.u.y.8.b 0 % $ # f t.u.u.n..XfXvXGXPXPXHXHXHXHXLXPXLXKXCXnXyX6X^.C.B.Z.Z.5.7 & = 5 b C.B. X8.8.6.6.q.6.6.6.6.t.",
"5.5.5.6.5.5.5.5.t.u.y.q.X.b 7 & = b 8.X.u.'.fXdXSXHXPXPXHXGXHXHXLXLXHXIXBXvXnXsX&XI.i.B.i./ 7 & 6 v / B.i. Xu.B.w.w.q.q.y.y.y.y.",
"6.6.8.8.6.6.8.8.p.y.4.>.>.m 0 & = v } r.P.6XGXDXKXPXPXPXHXCXBXHXDXGXGXFXvXnXBXGXCX$XP.n.j./ 5 # 5 v m p.8.I.i.j.w.q.q.w.y.y.y.y.",
"6.3.6.3.6.3.4.4.y.y.,.m v v q # # 0 ..~.6XvXDXLXKXPXPXHXFXCXCXGXGXHXHXIXBXmXMXVXGXxX1X~.n.m 5 6 v v q n q. Xi.8.q.q.9.6.6.6.y.y.",
",.3.3.3.,.4.4.3.y.a.e.,.>.m v q 0 ~ P.qXJXAXAXJXGXGXKXGXBXBXBXCXHXHXFXFXGXGXMXvXvXCXVX6XR...q 5 n m m n i. Xa.3.<.3.3.4.3.6.8.7.",
"3.9.3.9.4.4.4.0.4.e.B.A.w.3.8.X.=./.7XbXAXJXJXZXKXGXGXSXFXVXGXGXBXBXmXVXGXLXIXZXFXFXJXMX8XR.g.n n n y.p.a.B.e.6.0.0.,.3.3.4.7.7.",
"0.0.0.0.0.0.0.0.X.p.A.B.B.j.N.P.$X7XvXlXlXDXKXFXKXFXSXFXBXVXVXVXmXmXMXmXBXIXIXJXHXGXJXJXJXsXoXP.i.y.B.a.i.i.3.3.0.0.4.0.4.7.4.7.",
"0.0.0.<.0.0.<.<.u.8.i.B.Z.C.|.3XUXaXwXAXDXvXNXPXKXGXFXNXBXVXVXNXmXCXCXvXbXbXFXLXGXGXJXJXPXKXmXiX XB.B.A.B.a.3.3.<.,.<.,.4.4.4.7.",
"e.e.<.<.<.<.<.<.5.5.u.C.`.5XrXrXgXzXbXzXcXSXJXJXJXSXZXSXBXmXNXVXmXmXmXmXsXnXnXNXJXGXIXGXGXFXFXGXcX1X^.C.I.5.<.<.,.,.,.<.<.>.9.y.",
"y.e.e.e.e.<.e.e.j.N.~.oX6XeXeXqXgXzXbXbXAXSXJXFXSXZXcXxXxXuXsXmXsXsXnXsXsXsXnXmXIXJXLXPXPXPXPXPXKXdX%X.XOXj.9.,.9.<.w.w.<.,.q.j.",
"e.e.<.<.<.e.e.e.H.(.>XdXsXuXeXeXrXgXbXzXvXUXZXvXSXmXjXnXxXxXnXNXsXsXsXiXfXsXsXmXFXFXLXPXPXPXPXPXPXHXHXsXyXI.u.,.9.9.9.w.<.3.q.j.",
"<.0.<.<.<.<.e.a.}.{.,XwXqXqXqXqXrXeXkXzXbXvXvXzXNXjXnXnXmXmXNXGXsXsXsXsXiXsXnXmXvXBXGXPXPXPXPXKXLXLXHXHXNX#Xn.p.9.9.9.9.9.9.q.j.",
"0.w.w.<.<.e.A.n.}./.*X-X5X9X9X6XqXaXzXbXvXUXvXeXiXyXyXiXjXnXnXSXmXsXsXfXiXsXsXsXvXUXCXIXPXPXPXKXLXDXLXIXJXjXV.y.q.4.4.0.0.7.i.n.",
",.,.<.<.<.<.p.p.D.L.}.-X,X5X,X:XtXqXaXzXvXvXzX9X3X3X3XyXsXiXnXmXsXsXsXfXyXpXpX6XdXnXBXIXPXKXPXKXPXIXIXZXZXKXN.7.7.6.3.3.3.7.u.V.",
",.,.9.9.>.5...r.-.m.K._.@X:X@X[.@X>X4XqXaXaX5X@X|..XOX6XiXiXnXmXsXiXiXpXqX7X#X$X7XfXdXBXJXKXJXJXPXFXIXlXhXSXx.8.5.,.>.,.,.5.u.n.",
"q.w.q.q.8.7.u.l.#.l.N.Y./._._._._.[.@X>X4X4X+X_.E.E.!.OX6XiXjXnXsXsXiXyXyX7X#X@X;X4XqXbXZXJXJXJXNXmXIXhXhXcXx.6.5.5.3.3.3.7.j.n.",
"6.p.5.5.t./ ~ n.:.=.M.N.K.Q.Q.H.'.(.(.(.Y.z.&.;.#.M.P.'.oXyXnXNXmXsXiX3X=XOX.XP.G.L.Q.@XdXdXxXNXxXvXcXrXrXyXW./ u.t.p.t.X.u.V.V.",
"# 6 4 4 6 6 f } { | =.M.F.H.J.M.l.m.J.*.` C y > g ` m.(.:XyXiXmXNXNXsX6XoXOXR.P.C R [ M.W.7XuX0XuXcXzX9X8XuX'.^ f q f f f ~ j.V.",
"= = = 6 = = g | [ { { #.m.H.F.l.=.N.*., o o @ . O , =.W.2XxXmXmXVXGXNXiX#X~.S.[ + * * * { _.aX0XuXxXzX8X8XSX6X$.= & & = = x r.V.",
"h h 9 9 0 : g [ [ @.[ #.m.H.U.F.m.J.M.< . o @ . . * { Q.6XMXNXSXmXGXVXmX6XT.! : + + X o G '.dXeXxXjXzXeXeXPXFX/.g * + * > x M.H.",
", h 0 8 i y g T { [ #.=.M.J.Y.Q.m.N.F.=.R g < > + h =./.qXvXMXMXvXMXSXGXxXoX$., : : < { H.1XuXuXSXjXxXzXzXLXPXgX-.C : < g ! M.T.",
"h h r j S S S @.H [ =.=.*.m.Q.(.J.J.F.J.J.M.z.z.@.l.Q.@XdXBXFXSXFXZXNXFXGXnX`.F.D.z.D.(.1X0XuXzXJXvXuXuXbXbXZXLX}.Y < g D { m.I.",
"h j h u Z i Z @.H [ =.*.=.M.U.W.Q.J.M.m.D.G.Y.`./._.@XaXvXFXFXZXSXZXvXVXGXKXnX6XqX>X@X#X#X5XuXSXcXJX0X2XbXZXlXDX,X=.< g H | N.^.",
"h f f j E p ! z.{ #.l.*.*.m.H.W.N.J.M.M.-.M.D.K.[.XX@XqXdXbXzXzXvXvXSXNXSXGXSXnX>X4X#X#X#X1XuXcXrXPX0XoXUXLXlXDXkXD.< g ! g.C.~.",
"x i l l i F #.*.{ #.*.M.l.-.F.(.R.T.G.l.[ _ l.Y.:X[.-XtXwXzXjXyXzXzXjXjXMXKXKXvXMX9X[.@X2XuXxXMXBXaX9XeXbXvXvXbXAX{.P 1 ` l.N.~.",
"x u l l i H #.-.{ #.*.l.=.-.F.Q.(.T.F.z.$.k.H..X[.+X-X4XwXgXrX8X8XeXjXjXcXKXGXFXmXuX5X0XuXuXzXmXvXaXeXdXbXbXvXZXZX*X@.< { z.J.'.",
"x r Z l i S #.-.[ =.*.l.=.#.z.F.R.T.H.G.G.U.(.oX].8XtX;XwXwX<X<X=X=X8X8XzXFXIXUXNXcXcXMXmXzXzXuXaXqXeXdXgXgXcXJXJXtX-.C [ m.W.&X",
"j r p l i W &.-.[ #.*.*.$.| #.k.H.H.Y.T.!.!.(..X{.9X<X-XeXqX=X=X.X].oX=X8XzXUXFXSXNXSXKXFXvXjXuX>X5XeXeX9XrXjXJXDXtXD.C | J.W.&X",
"j h j x p S &.=.{ | *.l.h.#.&.$.k.m.G.U.H.H.E.U.K.-X;X-XwX;X}./.T.E.L.L.).<XjXDXKXSXjXjXSXMXuX8X+X4XqXwXtX9XgXZXZXwXD.D #.Q.'.&X",
"j h l l y S ` &.) [ g.z.z.%.$.$.#.h.l.$.#.g.l.z.L.{.;X;X*XD.` O.k.k.k.;.z.Y.<XSXSXcXjX0XjXjXrX=X@XtXqXwX5XwXzXZXAXkXK.T =.W..X&X",
"j 9 i l y l ` @.Q _ | k.l.k.%.*.' &._ ` ` &.$.#.D.K.[.[.S.1 - p ( O.;.O.H @./.jXSXcXgX8X8X8XtX=X@X4X9XtX9XaXzXgXAXIX[.@.=.Q.$X%X",
"j u j p w t ` ` Q W _ &.g.%.%.h.` ` ! ` [ %.&.@.-.D.}.}.K @ ; K ( k.S.O.B B D.rXcXjXjX8X=X<X=X[.>X>X>X4X9XgXgXeXkXPX>X=.=.P.$X%X",
"r j j j l A ^ ~ Q x F ~ { } | h.| ~ ~ [ [ { { @.=.-.D.K.: + 2 2 w i 8 - : 1 +.tXwXAXaX-XvX9X@X;X5X#X].XX:XtXtX8XgXJXrXL.&.P.oX%X",
"9 r u j j l A ^ Q A Z F Q F Q )  .} _ ) ) ) ) ) [ @.M.D.1 X   X $ ; @ X X + +.-XwXlXwXaX,X;X2X@X).)._.[.,XtXqX9XAXPXcX/.z.H.OX%X",
"u u j j u l Z E F A A F F A x z ~ ~ F x A H ` { ) G @.-.1 X     o O @   X 2 +.-XtX9X<XkXD./.>X_.K.W._.@XtX9XqXwXhXJXZX=XK.U.'.%X",
"r j u r r r j l F A A Q ~ ! H F z A k e , C { #.[ A R @.< O X X   O + + 2 1 -.-X-X,X9X/.@.H.`./.W.`.#X5X9X9XrXrXgXZXJXgX@X`.$X3X",
"r u j u r r u j A F F ! { [ { ~ c W x , * : x { [ F G R g + O +     O + + < -.[.{.<XzX=.@./.Q.oX$X>X6X0X9X9X9XrXjXZXJXKXMXxXxXMX",
"9 r u u 9 r r u F F F ! }  .| ~ A A x , $ O , G H x ! F G : + X       O X V z././.-X:XG D._.Y.1X1X5X5X5X,X8X9XwXgXcXJXPXPXPXHXPX",
"r u u u u r 9 u F F F ! } %. .{ ^ z x g > O $ < g g x e Z : * O +   O + + V -.L.K.(.M.@.Q.(.~.#X1X2X2X2X8X8X9XrXgXjXJXJXLXPXPXPX",
"9 u j u u 9 r u x z c W | h.l. .g.~ F F 9 O . O 9 h g * y , < : * O * : : C #.;.D.}.C F.'./.$X#X2X2X1X5X9X9X9XrXgXAXKXLXJXIXLXPX",
"j i i i i r p r A H Z h F  .h. .{ { ^ A i 7 &   ; : w 8 % $ $ + o . @ $ - y ` ` [ Z $.W.(.(.oX3X3X3X#X1X5X0XuXeXeXzXSXIXHXPXPXPX",
"i i j i i i y r Z ! H x j ^ $.u. .{ ^ b p 0 * . . X $ $ o o X   . . o o @ - a > > S m.Q.(.oX3X3XpX3X3X2X5X0X9X9XeXzXvXFXJXKXPXPX",
"r i i k i i r r Z ` _ k 0 f ~ h.$. .} c l i 7 *   . . o o o @     . o o & > > o o @.(.(.).6XiXpX6X6X3X6X5X5X5X,XeXzXvXIXLXHXPXPX",
"r i i i i i r r g ) _ k 0 0 c }  ...~ W z x 9 0 O . o $ $ @ $ @ @ @ $ - - p 7 o * F.oX).oX6X6X6X%X%X1X2X2X2X9X9XeXdXvXUXGXPXHXPX",
"r r i i i t r r g G H x 0 0 h c ~ ~ ~ c b x u 0 * o & > - - - ; $ - - 7 a H M ; ) W.#XoXoX3X:X:X#X#X1X1X>X2X,X2XeXaXzXFXGXPXLXHX",
"y r r r r i r i g z Z g 9 0 u f ^ ~ X.! F x j 9 0 % > p p a a a - - a p M ( O.] H.].#X1X6X3X3X3X$X#X#X$X:X:X,X>XrXqXzXvXLXPXPXKX",
"p r r a w r i j k k x h h h j x n ~ X.! c c x q q 6 p ( N M M M a p N N ( d.v.v.(.(.#XyXyX6X3X=X.XoXoX@XXX@X>X,X9X9XaXvXPXPXPXPX",
"r r w w w i i p Z k j j 9 q x ^ ~ } } ! c x z v f 0 M 2.s.N N 1.N M N s.( d.S.S.W.Q.oXqX3X3X3X!.)._.].oXXX@X2XeXtX9XeXvXKXPXPXPX",
"8 w r y r g t h g g g r e y j Z ^ _ ' ! A l i 9 e 7 p 2.d.s.s.s.M N s.s.s.s.f.S././.oX3XXX.X).!.[._.(.].@X5X4X#XqXqXdXvXHXPXPXPX",
"8 8 e r t r t t k k k g g j Z S ^ _ | } ~ W z i x j p t.f.d.s.s.N N s.f.f.f.f.v.D.}.XX:XoXR.!..X_._.[.].@X#X>X>X5X9XaXUXKXPXPXPX",
"r 8 r e r r h t g k k k i Z W Q W _ ..' _ ^ A i c h p ( c.S.f.2.( s.s.f.v.v.v.b.T.`.oXoX!.T.R..X_.[.XX@X@X@X>X2X>X4XaXvXPXPXPXPX",
"e w e e e r r r g k k Z Z S Q _ W _ ' ~ ^ W Z u h 0 r s s.S.v.f.s.s.s.s.c.S.P.!.#X).Y.E.U.R.!.).`.@X@X>X#X>X>X>X-X>XeXUXPXPXPXPX",
"8 w 8 w w r y y t i i Z Z S ^ _ _ _ ~ W c x x h = , 6 f ] d.d.d.d.s.2.s.c.E.!.~.!.N.h.h.J.(..X`.XX@X#X4X7X4X@X@X@X>XeXvXKXPXPXPX",
"r w 8 8 8 8 e r r t t k Z S Q _ | | _ E z c x h h 9 0 h q s m 2.1.1.2.r.k.x.N.M.h.j.N.F.P.!..X.X@X@X>X7X9X>X@X_.@XtXdXUXGXPXPXPX",
"w w 8 8 8 8 e r t t i k S F ` '  ..._ W E F x j j 9 0 j j 0 p s s 2.' s.g.h.u...h.V.R.R.T.!..XoX@X#X>X4X#XXX[._.>X9XdXvXFXLXPXPX",
"r 8 8 , 8 8 8 y t k Z k S H ` ' } } ~ W W W x h 9 6 0 x z 9 0 f / 2.g.g.h.M.M.u.j.E.I.I.T.~.'.].@X>X2X>X[._._._.4XqXzXvXFXJXPXPX"
};
