/* XPM */
static char *a9c3b1b615f94faaf1291c27a2bc635euvy1wQaXlEgiwv2N[] = {
/* columns rows colors chars-per-pixel */
"64 64 246 2 ",
"   c #15171D",
".  c #1B1D23",
"X  c #171C28",
"o  c #0D1C28",
"O  c #221F26",
"+  c #1C232D",
"@  c #1A2427",
"#  c #1C2836",
"$  c #1F313B",
"%  c #23242B",
"&  c #29242C",
"*  c #27282A",
"=  c #232A35",
"-  c #2B2B34",
";  c #232C3A",
":  c #282936",
">  c #29333C",
",  c #34343B",
"<  c #3A3638",
"1  c #332E2F",
"2  c #453C38",
"3  c #39423F",
"4  c #4B413B",
"5  c #57453B",
"6  c #6A4F3D",
"7  c #1E3647",
"8  c #2C3442",
"9  c #283846",
"0  c #333A45",
"q  c #343C4B",
"w  c #393A47",
"e  c #29364C",
"r  c #433D43",
"t  c #463E45",
"y  c #463F51",
"u  c #3B424C",
"i  c #37434A",
"p  c #3C4554",
"a  c #384957",
"s  c #334A56",
"d  c #3B4D63",
"f  c #3A5467",
"g  c #49454A",
"h  c #564846",
"j  c #58534E",
"k  c #4B4C53",
"l  c #434B5A",
"z  c #464956",
"x  c #534E56",
"c  c #49535B",
"v  c #54545C",
"b  c #5B5759",
"n  c #4C514B",
"m  c #695349",
"M  c #635B5C",
"N  c #675A57",
"B  c #72584E",
"V  c #79624E",
"C  c #776358",
"Z  c #6D645C",
"A  c #485767",
"S  c #5D5B64",
"D  c #5D5D6A",
"F  c #535967",
"G  c #465A73",
"H  c #535E71",
"J  c #454F61",
"K  c #625C64",
"L  c #655D66",
"P  c #705E6C",
"I  c #59636C",
"U  c #4B667B",
"Y  c #596877",
"T  c #5D717B",
"R  c #4C626A",
"E  c #68656A",
"W  c #766A68",
"Q  c #6C6A74",
"!  c #666A76",
"~  c #746D74",
"^  c #766C76",
"/  c #69747C",
"(  c #74737C",
")  c #787678",
"_  c #7D7369",
"`  c #5D6059",
"'  c #836A59",
"]  c #877569",
"[  c #887978",
"{  c #89726E",
"}  c #8A827A",
"|  c #95867A",
" . c #97806E",
".. c #A38A7B",
"X. c #566C84",
"o. c #5B7689",
"O. c #55708A",
"+. c #6B7C8C",
"@. c #687786",
"#. c #7C7B84",
"$. c #757986",
"%. c #697C93",
"&. c #857D87",
"*. c #977E85",
"=. c #6C818A",
"-. c #79838A",
";. c #688497",
":. c #798996",
">. c #7C929C",
",. c #6B89A4",
"<. c #7A8CA2",
"1. c #7A96AA",
"2. c #7B9BB3",
"3. c #6D90A6",
"4. c #7DA1B9",
"5. c #83838C",
"6. c #8A848C",
"7. c #898788",
"8. c #958786",
"9. c #838B93",
"0. c #8B8C95",
"q. c #878895",
"w. c #938C95",
"e. c #88939A",
"r. c #94939C",
"t. c #999499",
"y. c #9F918E",
"u. c #A89589",
"i. c #A59798",
"p. c #B2958E",
"a. c #B5A397",
"s. c #B0A297",
"d. c #8C95A2",
"f. c #8B9CAB",
"g. c #8598A5",
"h. c #949BA3",
"j. c #949CAB",
"k. c #9898A5",
"l. c #879DB3",
"z. c #919CB2",
"x. c #A59CA5",
"c. c #AF9EA6",
"v. c #87A1AE",
"b. c #99A4AC",
"n. c #89A5B7",
"m. c #98A9B7",
"M. c #9BB1BC",
"N. c #8EB0BC",
"B. c #A2A4AC",
"V. c #A9A4A8",
"C. c #B7A9A8",
"Z. c #BAB3AB",
"A. c #ACACB4",
"S. c #A5A9B6",
"D. c #B5ABB3",
"F. c #ABB4BD",
"G. c #A7B4BA",
"H. c #B9B6B9",
"J. c #C8978D",
"K. c #CBA59C",
"L. c #C8ABA8",
"P. c #C4B4B4",
"I. c #C8B9B8",
"U. c #DCB8B7",
"Y. c #CFB1AB",
"T. c #E3BABA",
"R. c #B7C0BF",
"E. c #C9C2BA",
"W. c #D3C1BB",
"Q. c #E2C0BB",
"!. c #9AB5C5",
"~. c #94B1C9",
"^. c #ADB5C3",
"/. c #ABBBC3",
"(. c #A7B9C7",
"). c #B4BBC4",
"_. c #BCBBC5",
"`. c #B4BDCA",
"'. c #B6B7C5",
"]. c #A8B9CC",
"[. c #CCBDC1",
"{. c #C4BBC5",
"}. c #DFBFC0",
"|. c #ACC1CC",
" X c #B8C3CB",
".X c #ABC3D5",
"XX c #BDCBD4",
"oX c #B8C8D6",
"OX c #B8D2DD",
"+X c #B9D0E4",
"@X c #C4C3CC",
"#X c #CAC5C8",
"$X c #DBCCCC",
"%X c #D6C6C7",
"&X c #D6D2CE",
"*X c #C3CBD4",
"=X c #CBCBD4",
"-X c #C8C9D6",
";X c #D3CCD4",
":X c #D9CED3",
">X c #CCD4DD",
",X c #C7D3D9",
"<X c #DCD3D5",
"1X c #D4D3DC",
"2X c #DBD4DB",
"3X c #DCDADC",
"4X c #D5D5D8",
"5X c #E5C8C8",
"6X c #E4CED3",
"7X c #E3D4D5",
"8X c #E2D6DA",
"9X c #E3DBDC",
"0X c #EBDBDC",
"qX c #EAD6D6",
"wX c #E5D0CF",
"eX c #E5E1DE",
"rX c #CAD9E4",
"tX c #D4DCE3",
"yX c #DCDDE3",
"uX c #D7DBE5",
"iX c #E4DDE2",
"pX c #E9DEE2",
"aX c #E5DFE9",
"sX c #DCE3E9",
"dX c #DAE1E6",
"fX c #D3E4F4",
"gX c #E5E2E4",
"hX c #EBE3E5",
"jX c #E4E4EA",
"kX c #EBE5EA",
"lX c #EDEAEC",
"zX c #E7EAEB",
"xX c #F2ECED",
"cX c #F1E6E7",
"vX c #E6EDF2",
"bX c #ECEDF1",
"nX c #E8EFF8",
"mX c #F2EDF1",
"MX c #EDF2F5",
"NX c #ECF4F8",
"BX c #F4F3F4",
"VX c #F4F6F9",
"CX c #F6FAFB",
"ZX c #F9FAFC",
"AX c #F6F8F8",
"SX c #F2F1EE",
/* pixels */
"-.0.B.F.R.R.R.B.b.A.G.y.} ` < @   X ; 7 8 k m B ' ' ] ] &.[ W ~ -.>.$.~ _ ] ' { 8.E l z i i s q 7 # # + @ % < 5 6 6 B ' ' ]  .} ",
"h.B.G.t.V.G.G.R.G.G.B.h.) n * * 8 ; 9 s J F Q L W _ Q +.+.;.%.$.>.n.>.-.) #.$.6.%.O.F d d a d q 7 # + # @ X * 2 5 6 V V ' ' _ ] ",
"G.e.( ~ / ) #.B./.G.b.e.Y 9 = @ ; 0 s s d G G Y T ;.;.;.3.;.1.3.2.~.2.1.3.1.1.l.2.O.H G A J d e 7 # # # X @ O 1 5 6 6 V V V V V ",
"-.E E ` ` Z E $.G./.M.:.F $ @ # 8 s f T %.X.X.X.o.;.,.2.4.O.3.3.3.~.4.4.~.n.~.~.~.4.%.G G f d d q e 8 7 + @   1 4 6 6 V V C _ Z ",
"_ E M ` M b Q E >. XM.=.i @ $ $ i s f =.f.!.v.1.;.n.v.4.N.3.1.3.4..X.X.X~.~.].~.1.,.o.O.O.G G f d s e 7 $ # % 1 < 5 m N C C _ } ",
"_ Z ` M M M S E ` b.G.T > $ @ i a U ;.n.N.N.!.N.2.M.|.N.M.2.4.1.4.~.+XrXfXrX.X2.%.O.O.X.U U f G f e e e ; ; X % 1 h m m N Z N Z ",
"} W Z ` j j v E / E -.R $ $ 7 s R +.f.(.].~.(.|./.M.XXM./.n.v.2.4.].OXOX+XoX+X~.2.%.O.O.U X.T U f d q e 8 = X % * 2 4 n 4 4 4 4 ",
"| W ` Z N b k n R ` R 3 $ i R =.g.f.~.(..X.X|.|.XX|.|.R./.N.n.n.N.~.~.N.2.:.g.;.3.1.O.o.%.o.U U X.f d q e 8 ; # ; 2 4 4 < < 4 2 ",
"u.[ N N M E ` I n i ; p a A T :.>.g.M.|.(.(. X X X*XG.|.|.G.n.N.!.N.N.N.1.v.g.>.:.-.<.<.1.v.1.g.:.@.Y d a 9 9 + @ < r 2 < 2 2 2 ",
"s.| W N j b b k i > 8 9 T e.M.|.XX,XXXXXXX X X,X>X*X|.G.G./.G.(.!.!.OX+X.XM.e.e.+.g.e.g.>.>.g.v.l.g.<.@.A s 9 # % - 1 2 2 4 4 h ",
"s.s.{ N N j b n 3 > i :.(.`.XX,X,XR.R.,X*X=X3X3X&X*X X|.F.|.M./.M..XrXNXnXrXF.9.-.b.v.e.-.b.G.b.g.1.<.;.%.X.a > - * < < 2 5 4 h ",
"..| } W j j g g c R =.G.^.A. X^.G.b.R.XX&X4X4X3X#X#XZ.R.G./.M.M.g.v.N.OXvXNX).-.-.h.-.-.G./.M.m.m.M.m.,.O.X.o.a > - < 2 2 2 5 5 ",
"..|  .W h 4 < , q @.:.e.h.)._.H.Z.R.Z.E.&X&X&X<X&XE.P.R.F.R.M.v.>.e.e.g.G.XX,Xh.e.h.0.B.B.G.G.m.b.G.].].n.o.U F p - - 2 5 2 5 h ",
"_  .C ` j i , w $.:.j.b.S.S.S.H.R.E.Z.Z.E.E.&X%XE.E.E.Z.G.G.b.e.-.>.e.=.h.b.A.G.Z.C.C.V.V.7.7.9.-.:.=.1.l.v.+.0 8 y g h h h h m ",
"V N Z j n 3 w @.:.:.e.b.h.h.e.r.7.h.V.Z.Z.E.#X$XE.R.E.Z.G.m.e.+.+.:.:.! h.B.V.V.Z.E.H.P.y.7.7.e.r.e.:.+.%.;.=.a 0 > w k h h m B ",
"4 j j 4 < > z $.:.e.@.9.5.9.0.-./ _ } | Z.Z.Z.E.Z.Z.Z.H.`.S.>.Y T :.:.( b.i.s.Z.Z.E.E.Y.Z.Z.s.V.V.B.j.j.e.e.:.Y 0 8 : 0 t 2 t P ",
"4 2 4 i > > ` T T =.-.G.e.T F z 0 g b _ | y.Z.I.a.H.H.E.).S.+.I T =.:.-.e.s.C.Z.Y.E.W.E.L.L.L.i.a.C.x.k.b.q./ I a ; # : z t h B ",
"1 * * @ $ a R / =.>.b.e.` 3 # = : - 0 h _ | i.a.C.D.A. X^.S.@.H I / =.-.0.i.L.P.W.W.E.a.a.a.u.u.u.V.V.x.V.B.q.( F 8 # % : k h 5 ",
"* @ @ * 9 s / T =.b.e.=.c i 0 z 8 q y A E | } V.Z.V.A._.(.m.Y F R T / 9.7.s.a.K.E.K.K.s.a...] [ 8.} 8.t.k.t.t.e.:.F 8 X % < g N ",
"@ @ * * s R R T b.b.g.7.R u g q q F A H =.-.7.t.k.H.).).M.m.T H ` I $.e.k.u.a.a.Y.....J...] W ( Q E ` [ x.B.k.S.$.$.z + % * g g ",
"@ @ $ $ s 9 =.1.M.>.e.>.+.Y A a A F A I / -./ #.0.A.F.m.g.j.@.I c I / e.r.| u.......a...[ [ ) v i > % - L i.w.0.-.I ! : + % - < ",
"$ $ @ $ i R ;.1.v.>.g.T (.o.~.X.R 0 z z ` 7.9.r.6.b./.j.+.:.@.Y R I ! e.k.{ { .. ... . .y.8.g 8 $ > # % < E w.0.0.$.l q + % % & ",
"# o o 7 7 f 3.1.:.>.o.T m.U !.f f c ! ! Q b.7.r.r.9.^.m.! @.$.! c ! / 9.r.&.B ' ] C _ | &.N - ; $ 9 # % < P &.0.r.0.E = % . O % ",
"@ o $ 7 s =.1.v.>.=.>.+.N.o.,.p I H I b b 7.r.r.0.q.h.).-.$.@.@.F @./ ( &.&.h N C E u.} L 2 < , # i l w r W Q 0.0.r.#.w - %     ",
"@ $ $ 7 U ;.4.>.N.F.|.v.o.n.d F I ^ S k 5.t.r.V.B.t.b.F.e.#.:.$./ @./ ( q.K h h N 8.&.W M r < % X q.H y t M ~ ( q.0.( g % .   . ",
"$ 7 9 f ;.1.4.M.|.XX,X X:.v.n.! K #.&.0.w.V.V.b.G. XF.F.j.e.e.q.$.$.$.#.5.K t S w.[ L < y 1 w & . - w r g j K E 5.$.! E +     % ",
"7 s f T ;.2.].XXXXtX>XOX>.;.;.@.( D 7.7.r.b.V.F.).A.D.G.r.b.j.j.d.q.q.r.5.~ ^ t.6.S x v K t r , - 0 r g k j x S #.w.) v g %   % ",
"7 f U o.n.v.(.XX,X,XdXdX|.<.o.@.h.r.0.D.#X@X@XA.A.H.A.b.h.j.m.S.S.S.S.k.k.t.w.w.&.&.! L t 1 r r 2 t t t x W g K S ~ Q g g & % . ",
"7 f o.~.f.!.OXrX>XtXdXtX,X|.:.>.( 0.F.#X#X&X&X&X#XR.H. XXX).'.`. X].^.^.A.A.D.i.&.[ Q k y y , 8 r r w x M [ Z M E b I v 0 , - 0 ",
"7 U H %.f.S.XX,XzXdXtX4XXXM.f.e.B.@X3XeXeXeXeXeX3X&X*X*X>XrXoXrXrX-X`.@X{.{.H.I.D.D.D.t.^ b y L x @.D x [ i.8.~ K E b z w k c l ",
"G f o.l.z.]. XtXsX>X,X,XXX|.|.,X>XjXzXcXgXgXeXeXeXeXtX>XrXrXrXrX>XrX>X-X-X;X}.;X$X:X:X:X[.V.&.F F x g ^ i.u.| } K S S E u u z p ",
"f f H l.M.^.*XjXvXMXdX,X,X>X4XdXzXMXMXzXhXeX9X3XeXeX3X,X/.m.l.b.m.^.m.m.S.{.;X6X<X7X<X:X2X2X;XS.X.D { 8.C.V.c.8.Q b v z g w w p ",
"R Y :.f.m.e.tXvXvXlX>XtXtXuXsXvXNXAXBXSXzXgX9XgXgXyX_.:.R d l a l p J Y ! 0.#X9X9X7X3X<X3X;X@X-X'.r.8.x.V.C.C.i.8.E x x z w w 8 ",
"H R Y g.g.,XdXzXAXMXsXuXtXvXNXVXCXAXBXSXzXgX9X3X1X`.g.H J i a p q p a F A v k.;X3X9X9XeXhXhXiX2X=X1Xc.i.x.s.C.P.8.7.b v k > w 9 ",
"H H T g.(.dXtXAXBXNXbXvXMXVXCXVXAXAXBXSXlXeXyX>X/.n.X.Y F i 8 0 8 0 0 p J k S H.9XiXhXcXkXhXiX2X;X#X:XP.i.C.C.P.L.t.) L F q 0 p ",
"A A e.M.XXdXsXMXNXBXVXNXVXVXCXCXAXZXBXSXxXzXtX`.:.:.+.U p 9 8 8 > - > , w l c w.:X9XgXlXhXgX9X<X[.{.#X#XI.I.I.[.D.C.8.( z z q q ",
"J J $.b.>XdXdXNXCXCXNXVXCXZXVXCXAXCXAXSXlXjX,Xm.;.%.o.= X # 8 : : : &   . : z I @X<XgXhXkXhX8X8X#XI.P.[.;X[.%XI.I.P.x.6.Q z q l ",
"q l $.M.,XdXzXNXBXMXBXAXVXVXVXVXCXAXBXBXlXjX Xl.,.%.d + + o q : : : .   X X 0 F _.2XhXcXcXgXpX8X2X[.C.I.%X%XE.I.{.P.C.y.#.D z J ",
"F F @.|.,XsXvXVXBXNXCXCXVXCXCXZXCXBXBXBXbXuX'.g.;.X.q # o o a - - -     . : 0 F _.yXkXlXlXkXaXiXyX$X$X[.%X$X%XU.U.{.D.x.$.E J y ",
"d Y f. XXXsXNXNXlXCXCXVXZXCXCXZXCXCXBXBXkXyX`.z.,.U 7 o o i l = & - .   o X 0 ! '.uXkXmXlXkXpXpXiX8X%XI.%X%X%XC.P.P.D.c.#.D l l ",
"A X.l.oXuXvXNXMXMXCXAXCXCXCXCXCXAXAXBXlXjXtX`.m.<.%.%.7 J @.= * & 1 < % X 8 F &.-XuXaXkXkXkXaXpX9X9XeX$XW.$X%XP.I.P.c.x.) D l z ",
"Y Y g. XsXNXNXVXVXVXCXCXCXCXZXCXCXAXCXlXdX*X'.m.z.<.%.8 a e + % - & w w 8 F X.c.-XuXkXkXkXmXaXaX9XeX7X<X5XwX5X%X[.I.P.w.5.S F l ",
"J @.g.`.>XnXMXCXCXCXZXCXCXZXZXCXCXCXCXbXuXuX-X].g.z.Y 8 ; = + % & & & & & x &.'.1XaXkXnXmXkXmXaXgX9X9XwXwX&X$X[.[.[.P.6.#.! l a ",
"T @.g.].dXvXNXCXCXZXZXCXCXCXCXCXAXCXNXlXsX1X-XS.^.z.! y : % % & O O & 1 y @.z.-X1XaXkXaXmXmXkXkXgXiX7XwX<X7X:X%X[.[.D.t.#.5.! J ",
"T :.m.(.dXNXNXAXCXCXCXCXCXCXCXZXZXZXNXvXsXuX'.-XF.d.@.F k w & & O & : t P &.x.-X1XuXaXmXmXmXmXmXjXhX<X7X7X<X<X[.{.D.D.w.&.$.+.H ",
"@./.,XXXfXNXCXNXCXVXCXCXZXZXCXZXVXVXVXbXuXuX-X-XS.w.&.^ ) g , & 2 y L b $.k.^.{.2XuXaXaXmXmXkXmXkXkX9X%X6X$X7X%X[.D.S.q.d.$.q.+.",
"g.j.M.sXNXNXvXvXNXCXZXZXCXCXZXZXZXZXnXbXyX2X-X_.S.S.r.6.#.v y 1 v E #.&.w.D.'.{.2XaXaXaXaXmXkXmXmXkXkXgX2X:X2X;X{.S.^.$.k.$.%.! ",
"f.^.XXzXNXNXvXNXCXZXZXZXZXZXZXZXZXVXbXbX1XuX;Xt.D.A.^ &.~ b t r Q P P 6.&.D.{.D.;X2X2XaXcXmXkXkXkXxXkXpXiX6X:XuX{.x.^.&.! k.X.y ",
"b.^.dXnXvXvXCXCXVXCXZXZXZXZXZXZXAXbXlXbX2X4XD.t.[.&.$.&.L K x P *.y &.&.*.D.{.D.[.iX9XhXpXcXkXkXkXmXkXaXiX%X{.1X-XB.z.&.X.&.k.X.",
"m.,XvXsXNXCXCXCXCXCXZXZXZXZXZXZXVXBXlXkX3X;X{.x.c.L x.w.^ Q ^ ^ *.P *.&.*.c.{.U.%X3XpXpXkXaXkXkXkXgXaXkXaX;X{.-X-X{.S.*.y @.X.*.",
"].,XsXNXCXZXZXZXCXCXCXCXZXZXZXZXBXmXgXgX[.c.8.P.*.^ t.[ w.Q P ^ *.*.&.*.*.*.{.{.:X8XpX8XpXpXaXpXpXkXkXkXkXyX-X@X{.-Xk.z.$.D P D ",
" XuXsXNXCXCXVXZXCXCXCXCXZXZXZXAXBXBXhX7XC.{ i.c.L P P L &.D P K $.&.&.*.*.L.L.}.6X8X8X9X7XpXpXpXpXaXjXjXjXyX;X@X`.-X^.z.z.&.&.@.",
"rXuXMXZXNXCXZXZXAXZXZXZXAXAXBXxXcXlX9XI.c.i.[ W ^ ^ ^ L *.$.#.^ &.P P { *.K.Y.L.%XqXqX0X8X8XpXpXpXaXgXkXkXiX1X_.'.'.S.*.&.$.$.@.",
"tXvXVXBXvXZXZXZXAXZXAXZXAXBXxX0X:X9X%XP.}.I.i.C.i.i.&.b &.&.&.&.*.$.&.*.*.J.Y.Y.}.6X6X6X7X6XpXpXcXgXaXgXjXaX2X-X'.'.k.X.z.&.D P ",
"uXvXNXMXZXVXZXZXAXZXAXBXBXcX0X$XwX0X%X9X8X:X<X$X{.D.w.#.B.'.D.'.D.D.*.c.J.K.K.J.U.5X5XwX6X5X5X0XpXiXpXiXpXaXyX1X{.{.S.@.P &.P X.",
"uXjXtXjXNXVXVXVXSXAXSXxXhXgX0X0XeXhXhXcXpXpXhX0X%XH.c.6.^.-X;X1X-X}.{.U.T.K.J.J.K.T.}.5X5X5X6X6X8XiXpXiXyXpX2X=X-X-X{.&.F $.&.$.",
"yX*XdXyXjXtXiXBXAXxXxXxXxXxX0XcXeXcXSXxXxXcXBXcX3X2X{.V.{.yXiXiX;XaX6X5X}.T.J.J.J.K.T.T.T.T.qXqXpXpXiXpX2XiX2X;X{.{.{.S.$.P &.&.",
"H.=XdXdX X=XbXVXAXBXmXBXxXcXhXcXcXxXSXSXxXSXSXxXhXhX<X&X:XjXgXkX6XaX0X6X6X6XT.Y.T.K.Y.Y.T.5XqXqX8XpXpX0XiX2XiX=X{.x.^.'.&.D X.@.",
"*X*X X>XgXBXVXVXVXBXAXAXcXeXcXcXcXSXxXxXBXAXSXxXlXlX9X9X9XgXpXxXaXaXaXpXqXqX5X5XT.T.T.T.5X5XqXqX7X8XaXiXiXiX2X;X{.S.S.S.S.&.P @.",
"b.h.0.A.=XlXBXVXAXAXBXxXeXcXcXcXxXcXcXBXSXAXSXSXSXxXgXgXhXkXpXcXkXmXcXpXqX0XqXqXT.U.T.T.5X5X5XwX0X8XiX6XiXiX;X;X'.*.&.d.&.k.&.&.",
"9.9.b.@XgXbXBXVXBXBXxXxXwXcXcXcXcXxXBXBXBXBXBXBXSXzXeXgXpXcXcXcXcXmXxXpXcX0X0X0XqXY.Y.T.5X5XqXpX7X6X:X8XiXaX2X{.{.S.&.q.B.&.D $.",
"r.b.G.4XjXmXBXBXzXgXSXcXhXxXSXSXxXBXSXSXSXSXBXBXSXzXhXgXcXcXcXhXpXmXxXcXcX0X0XqX0XT.T.T.wXwXqXhXpXiX8X:X:XiX2X:X{.k.$.P &.k.L K ",
"B.h.B.>X=XmXvXjXgXSXSXcXSXSXSXSXxXlXxXSXxXxXBXmXcXzXgXhXcXaXcXxXpXmXxXcXxXcXcX0XqXqXT.5X5XqX0XgXgXaX3X2XyX2X2X=X{.q.$.P v $.$.x ",
"#.#.F.b. XbXyXjXgXZXAXAXxXxXcXxXzXxXlXlXlXxXxXzXzXzXgXhXcXpXcXcXpXmXxXcXxXxX0XcX0X0X5X5X5XqXpXiXgXaXaX@X;X-X{.1X'.&.w.$.&.$.&.P "
};
