/* XPM */
static char *a29fb6da70a0473de24d4b9c6555ec9a5X9lWPt5nvZzeUGi[] = {
/* columns rows colors chars-per-pixel */
"64 64 183 2 ",
"   c #376FBA",
".  c #3B72BD",
"X  c #3F78BF",
"o  c #4276BE",
"O  c #4877BF",
"+  c #4578BF",
"@  c #4B7BBF",
"#  c #537DBD",
"$  c #3E76C1",
"%  c #3F79C2",
"&  c #4276C1",
"*  c #437AC4",
"=  c #4B7DC4",
"-  c #457DC9",
";  c #4A7EC9",
":  c #527EC2",
">  c #587FC1",
",  c #4780C5",
"<  c #4E81C6",
"1  c #4E82C8",
"2  c #5581C2",
"3  c #5481C2",
"4  c #5780C2",
"5  c #5582C3",
"6  c #5783C2",
"7  c #5682C3",
"8  c #5681C0",
"9  c #5180C4",
"0  c #5380C4",
"q  c #5281C5",
"w  c #5182C4",
"e  c #5383C5",
"r  c #5282C4",
"t  c #5081C6",
"y  c #5182C7",
"u  c #5382C6",
"i  c #5481C4",
"p  c #5481C5",
"a  c #5683C4",
"s  c #5783C4",
"d  c #5681C6",
"f  c #5483C7",
"g  c #5683C6",
"h  c #5782C7",
"j  c #5384C7",
"k  c #5784C5",
"l  c #5585C7",
"z  c #5784C7",
"x  c #5283C6",
"c  c #5881C1",
"v  c #5A83C1",
"b  c #5881C3",
"n  c #5A81C2",
"m  c #5982C2",
"M  c #5B83C3",
"N  c #5C85C3",
"B  c #5C83C4",
"V  c #5884C5",
"C  c #5B84C4",
"Z  c #5A86C5",
"A  c #5985C6",
"S  c #5885C6",
"D  c #5A86C7",
"F  c #5B87C6",
"G  c #5C85C5",
"H  c #5D84C5",
"J  c #5E86C4",
"K  c #5F87C5",
"L  c #5F87C4",
"P  c #5D86C6",
"I  c #5E87C7",
"U  c #5986C7",
"Y  c #5C88C7",
"T  c #5E8AC7",
"R  c #5283C8",
"E  c #5385C9",
"W  c #5985C8",
"Q  c #5986C9",
"!  c #5B87C8",
"~  c #5A87C8",
"^  c #5986C8",
"/  c #5688CB",
"(  c #5B88C9",
")  c #5888CA",
"_  c #5D89C8",
"`  c #5F88C8",
"'  c #5F8BC8",
"]  c #5D89CA",
"[  c #5D8ACD",
"{  c #5F8BCC",
"}  c #5B8BCC",
"|  c #5F92CD",
" . c #5D8ED1",
".. c #5E94D4",
"X. c #5C96D8",
"o. c #6086C4",
"O. c #6088C5",
"+. c #6088C6",
"@. c #6189C7",
"#. c #6089C7",
"$. c #6389C7",
"%. c #628AC7",
"&. c #678BC7",
"*. c #658CC7",
"=. c #628BC9",
"-. c #628BCB",
";. c #658BC9",
":. c #648AC8",
">. c #648CC9",
",. c #658DCB",
"<. c #608CCD",
"1. c #638CCC",
"2. c #658DCD",
"3. c #678DCC",
"4. c #678FCD",
"5. c #668FCD",
"6. c #618ECD",
"7. c #688CCA",
"8. c #6A8CCB",
"9. c #6B8DCD",
"0. c #698FCD",
"q. c #688ECC",
"w. c #6B8FCD",
"e. c #6491CE",
"r. c #6990CB",
"t. c #6A94CE",
"y. c #6C9ACE",
"u. c #7397CB",
"i. c #7499CE",
"p. c #7D9CCE",
"a. c #628FD0",
"s. c #6394D4",
"d. c #6B95D2",
"f. c #6599D5",
"g. c #6B9BD5",
"h. c #6395D8",
"j. c #6499D9",
"k. c #6C9DD9",
"l. c #7097D0",
"z. c #739CD4",
"x. c #7A9ED4",
"c. c #729ED9",
"v. c #789FD9",
"b. c #6EA0D5",
"n. c #6EA0DA",
"m. c #74A2D6",
"M. c #7CA2D6",
"N. c #74A3DA",
"B. c #7BA4DA",
"V. c #7CA9DC",
"C. c #7BA5E0",
"Z. c #7EAAE1",
"A. c #819FD3",
"S. c #83A4D6",
"D. c #89A7D6",
"F. c #8BA9D7",
"G. c #83A5DA",
"H. c #89A7D9",
"J. c #84A9DB",
"K. c #8CABDB",
"L. c #90A7D3",
"P. c #92ABD6",
"I. c #99ACD5",
"U. c #93ADDC",
"Y. c #8DB0DE",
"T. c #9EB2D7",
"R. c #95B1DE",
"E. c #9AB3DD",
"W. c #9FB9DE",
"Q. c #A1B6DE",
"!. c #A8B6D9",
"~. c #A4B9DE",
"^. c #ABBBDC",
"/. c #84ACE0",
"(. c #8CAEE1",
"). c #90ABE0",
"_. c #96B2E1",
"`. c #9BB4E1",
"'. c #9DB9E5",
"]. c #A1B6E1",
"[. c #A4B9E2",
"{. c #A9BFE1",
"}. c #A5BDEA",
/* pixels */
"@ = # # @ # # # # # # # # = O O O o o o o . o o o   o o . .   .   o   o   o       $                                             ",
"7 7 2 : 2 8 8 8 n N : : : = O O & O & O o o o O o o o   o . o   o   o                                                           ",
"z 7 2 2 8 M M M o.> > : : : # O = O @ O = O O O o o o o . . o . o o           o                             $               $   ",
"z V V 6 2 M M M N N > C : : = : O = : = : O : O O o o o o o . . o   o o o o     $   $   $   $     $             $       $       ",
"V V V J J J J =.o.6 M 2 > : : O # w : : : : # = O O + + + o o o & & & . o . . .   $       $       $   $             $         $ ",
"6 6 C J J I o.$.N v M 8 : : = # @ # : : : 7 : : @ # @ @ O + & o & & & & o . . . $   $ $ $   $ $ $         $ $   $ $     $   $   ",
"# # N N T T o.o.$.N M 8 : : # = w @ : w w w w : # @ = @ = & @ o & & & & & $ . . $ $ $     $ $       $ $ $ $       $   $ $     $ ",
"8 8 J $.;.;.;.o.O.N M 2 C : : # @ @ = < w : w < @ # @ = + + + + & & * & . & . $   $ $ $   $   $ $ $   $ $   $ $ $   $   $ $   $ ",
"z z ( _ =.>.7.w.#.T J V W C h 7 : : : : : : : : @ @ w @ @ @ @ @ = & & O & % % X X $ . . $ . $ $ $ $ $ $   $ $ $ $     $     $   ",
"7 7 V J =.$.;.*.>.=.T T W W z h ; 7 C : h : 7 : w < @ = , = @ = = = = & o $ $ % X . $ $ $ $ $ $   $     $ $   $ $ $ $ $ $ $ $ $ ",
"7 7 F _ =.;.*.&.7.>.;.$.F V 7 R 7 R w w : : w : = < w = w = < = : = O & & o & & X X $ $ $ $ $ $ $ $ $ $ $ $ $ $ $ $ $     $ $   ",
"7 z ( 1.3.w.w.r.7.w.;.$.F z w w R R w w 1 = = = = @ @ < = = = = O = & O & & & & & & & & & & & $ $ $ $ $   $ $ $ $   $ $ $ $ $ $ ",
"< w W { 3.e.3.e.w.w.3.-.( j < < w w = w < = @ , @ = * = = = = = = O + * @ o & & + * * o & & & & $ $ $ $ $ $ - $ $ $ $ $ $ $ $ $ ",
"= = < z W F ( F 2.1.{ [ ( j < < , , = = @ , @ @ = = = = = = ; = @ = @ @ + = = = = + & & * & & & $ $ $ $ $ $ $ $ $ - $ $ $ $ $ $ ",
"* * = = = < = w w z z z R ; = = , = + = = + * + * * = = < 1 = < = @ = @ = = = ; , , = = = * * & - $ - - % - - $ - $ $ - $ - - $ ",
"- - = - = = = @ + = = ; = = = = = = , = = , = * = = = = - 1 1 1 w < w < < R R E , < , = = = - - - - $ - - $ - - - $ $ - $ $ $ - ",
"- ; ; ; ; ; ; ; : ; = = = ; = = ; & = = = = = = @ , < w = < w 1 , , , w < r < r w r < j R w < < = = = - * * - - - * % % % % % % ",
"= ; = = ; - - = ; ; ; = = = = ; = = ; : = ; = = w < w < < < < 1 w 1 w w w r r r r r j j R R R j ; = ; = ; ; ; ; - - * - - % - % ",
"; ; = ; ; = ; = ; ; ; ; ; ; ; ; ; : ; ; ; : ; ; < < < 1 < < j w 1 l w j w w r / j E / R z / / } z j : = : = ; = - - - % - % , % ",
"1 1 1 1 R ; R ; E ; E 1 ; ; : : : ; ; E ; ; : ; 1 w < j w w j 1 E l j j w / r r / z R z z / } | ( W W z ; : = = - = = = - - - , ",
"R w < 1 : w 1 = 1 1 E 1 E ; ; ; 1 j j 1 : ; R w 1 1 1 1 E 1 1 E E E l l j e / / / / R h z / Y Y { { { ( / z h R 1 < , , , , , , ",
"R j j R w R w w E E 1 E E R R E j 1 j 1 h R 1 R E E / 1 E E E 1 l l l / / F F F / z / z z W } ) } T [ / ( R w < < , , , , % % , ",
"/ / R / / R z z E 1 1 R R ; R 1 1 j j j R R R R / 1 1 / E E E / l / / } / } { { } ( } ( [ [ } ( F / F / / E 1 ; , , , 1 , , , , ",
" .}  .} } } / / R R R R R h R ; < < 1 j 1 R R w 1 / / E / E E E / / } } | =.| { e.e.{ 1.[ [ [ [ } | |  .} / 1 1 / 1 1 1 1 1 , , ",
"} } { }  .[ { { / / / / E E E E j E E R E E E E / / / / 1 / E / / } } } } } | { s.1.e.1.e.=.>.3.3.;.1.1.1. .} / 1 R j 1 1 1 1 , ",
"} } / } } } / } / / / / / E E E j R E E E / / E / / E / / / E E / l / } | | { | | e.e.e.e.e.e.w.d.t.s.a.a. .} z R R 1 1 1 1 1 E ",
" ./ } / / / / / } } / / / / / / E / E / / E E / E E / / / / E E / / } } ( ..e.e.e.1.3.e.t.t.t.d.d.d.d.0.s.3.-.[ } / z R E 1 E E ",
" . . . ./  .} } / } } / /  ./ } / / / / / / / / / / / / / / / E / l } } { {  .e.e.1.s.e.s.d.d.d.3.d.d.d.d.d.d.d.{ |  .{ |  .} / ",
".. . . . . . . .| } } } { | {  . .}  .} } } } / / / / / / / / E / / / } } } s.e.e.s.e.e.a.d.d.w.d.d.d.l.l.l.l.l.e.d.d.g.s...{ { ",
"s.s.s.3.e.e.3.s.e.| e.{ a. .a.a. ... . . . .[ [ X./ /  ./ X./ / z / } } { | { { e.1.e.e.s.w.d.d.l.l.z.l.i.z.z.l.d.d.d.d.d.d.e.| ",
"d.d.d.w.e.t.d.d.e.e.d.s.s.1.a.a...a.a. . . . . .}  ./ / / / } /  .} } { } { s.{ e.s.h.w.d.d.g.g.z.z.l.l.x.i.x.i.z.l.l.d.t.d.e.e.",
"l.l.d.t.t.d.l.l.y.d.d.d.e.d.s.3.h.h.h.a. .a. . .X.} } / / X. .X. . . .....1.s.e.a.a.a.d.d.d.z.c.l.l.l.l.i.x.x.x.M.v.z.l.t.t.y.d.",
"c.z.l.l.l.l.i.l.v.l.l.d.l.d.d.l.d.d.s.{  . . . . .} ..{ | | | e.t.e.d.3.e.s.s.s.h.h.d.d.g.d.l.v.p.x.p.x.S.G.A.A.v.d.g.d.d.d.g.y.",
"A.S.M.A.A.A.H.H.G.G.G.S.G.v.B.v.l.g.d.s. . . .a. ...{ ..s.e.s.s.d.d.g.d.d.d.d.e.w.w.d.l.l.v.v.v.S.x.M.S.G.H.G.G.m.z.l.d.d.d.e.e.",
"K.(.F.H.H.K.)./.K.(.K.(.H.G.G.A.M.v.l.g. ...2.a.h.s.d.s.s.s.h.w.g.j.d.d.d.t.d.t.u.u.p.A.M.B.S.M.A.A.A.B.B.G.G.H.A.p.i.z.l.t.y.e.",
"[.E.E.U.P.F.P.K.U.K.K.U.K.H.D.S.H.G.M.z.d.s.h.h.e.s.e.s.s.s.h.h.f.d.d.g.z.z.p.x.L.L.F.P.K.F.G.D.G.G.v.v.x.S.H.K.F.F.S.M.v.z.y.y.",
"{.{.W.E.U.U.U.).U.P.F.F.H.H.H.H.H.G.v.v.k.k.g.k.d.y.d.d.d.d.d.9.d.d.l.l.M.D.K._.[.].E.U.U.K.H.G./.G.M.x.M.D.U.`.E.R.F.D.M.M.M.M.",
"[.Q.[.`.`.).).).D.F.H.F.H.H.H.H.S.v.v.z.z.z.z.z.z.g.z.z.z.z.x.x.z.x.A.G.K.`.}.}.[.].Q.U.U.F.K.F.S.S.x.S.S.U.`.[.'.E.U.F.H.G.D.S.",
"U.E.U.U.(.K.K.G.A.S.G.G.G.v./.A.c.v.v.z.z.z.z.x.x.v.M.M.G.H.H.H.H.H.K.U.`.E.[.[.E.U.U.F.D.D.H.F.G.S.S.F.P.E.Q.~.W.E.R.R.K.R.K.K.",
"D.K.K.K.K.G.G.S.x.v.S.G.G./.v.v.c.c.N.z.z.z.x.x.v.M.G.G.(._.)._.`.`.E.].E.E.I.I.U.K.K.D.H.H.G.H.U.K.K.U.'.[.^.!.E.E.R.`.R.R.P.P.",
"x.z.m.M.M.M.V.V.i.M.V.S.D.D.A.G.B.B.M.z.g.c.k.N.c.B.G.K.`.Q.^.^.^.^.[.].E._.Y.Y.P.U.U.F.F.K.(.(.U.U.E.U.E.].].].(.Y.R.T.T.P.R.R.",
"y.i.z.d.z.z.z.z.z.v.M.M.V.J.H.H.v.v.v.v.l.l.d.g.c.B.B.F.R.`.].[.{.[.].`.R.P.K.F.P.U.R.U.K.U.U.(.U.U.U.`.E.`.E.P.K.Y.E.Q.W.T.R.Y.",
"e.s.e.e.e.e.e.d.d.d.g.c.v.B.B.B.S.S.B.M.x.z.z.z.v.v.v.M.G.F.Y._.'.`.U.P.J.F.F.K.U.`.'.E.R.R.R.R.U.U.E.U.).U.U.H.S.F.R.[.W.T.R.K.",
"s.a.s.a.s...s...s.h.s.d.d.g.z.c.G.G.G.J.G.S.M.S.c.z.z.l.v.v.V./.J.G.G.S.S.S.J.K._.'.'._.K.K.K.K.E.U.K.F.H.).K./.M.S.Y.E.E.R.Y.F.",
"h.h.....h...h. ..... .{ | s.y.f.x.x.v.S.M.M.M.M.l.v.z.z.c.c.z.c.m.v.m.z.v.m.M.M.G.K.K.S.M.M.S.S.K.K.H.A.G.G./.G.M.M.J.K.Y.K.J.K.",
"h.X.......................| ..e.l.z.c.c.v.m.B.M.v.M.B.C.v.c.z.g.g.g.g.g.g.d.g.y.z.c.z.y.i.z.B.M.v.S.G./.V./.V.v.B.B.B.V.B.B.B.V.",
"h.....f.s.....h.f.f...s.........h.j.f.g.k.k.c.N.v.M.B.B./.v.m.z.g.g.f.f.g.f.f.f.j.j.h...y.g.n.g.g.N.c.C.V.V.M.v.c.k.c.k.k.g.m.m.",
"s.e.e...e.s.s.s.f.s.f.s.f.........h...h.s.d.k.k.z.v.B.B.B.B.x.z.g.f.f.j.h...j.f.X.X.......j.h.| s.f.f.d.d.m.g.y.j.f.f.f.d.e.d.g.",
"f.f.f.j.j.j.f.h...h.f.f...| ....f.y.f.f.f.s.f.f.g.g.n.N.m.B.B.B.c.c.g.d.f.f.j...h.....j.................X.f.X.X.f.....X.j.X.j...",
"d.g.g.g.g.f.f.g.f.f.f.f.y.f.f.f.f.f...f.s.f.f.f.f.y.g.g.k.c.z.k.c.z.g.h.f.j.j.j.h.j.j.j...j...j.j.j.X.....X.f.j.....j.X.....X...",
"z.g.g.z.g.g.g.g.g.g.k.g.g.g.b.f.f.f.f.j.f.f.f.f.f.g.f.g.g.g.g.g.C.k.k.j.j.j.j...j.h.X.X.j...X.X.j.j.j.j...j.f.....X.X...X...b.X.",
"M.M.z.m.m.z.m.m.g.N.k.k.k.z.g.b.f.g.f.g.f.g.f.y.h.j.f.f.k.j.d.k.n.k.k.k.j.k.j.j.j.j.n.X.X.b.j.j.j...f.j.f.j...j.b.X.j.j.b.j.j.X.",
"B.M.V.m.p.m.m.i.k.c.N.g.k.k.z.k.f.k.g.f.k.g.g.f.f.f.f.b.j.f.j.j.j.j.k.j.f.f.f.f.g.g.f.k.j.j.j.j.j.j.j.j.j.h.f.j.X.X.j...X.X.X.j.",
"S.V.M.V.V.m.m.m.c.c.k.c.k.c.k.c.k.n.n.k.k.k.n.k.b.g.f.f.g.f.j.k.h.k.k.k.f.y.g.g.d.g.d.f.g.f.k.j.j.b.j.j.f.f.j.j.n.b.j.j.j.b.X.b.",
"M.V.M.M.M.V.m.m.n.n.k.n.n.n.n.g.k.g.g.k.g.n.b.n.b.b.b.b.b.k.n.k.k.j.c.c.b.m.m.m.M.m.m.z.g.k.k.n.b.n.j.n.f.j.f.k.j.j.j.j.j.j.k.j.",
"m.i.m.V.m.V.m.m.n.n.n.n.b.b.b.n.n.n.n.k.n.n.n.n.b.b.b.f.b.k.N.c.c.C.c.C.m.V.V.Z././.J.Z.Z.C.C.C.n.n.n.j.b.k.k.k.j.n.n.j.k.k.j.n.",
"m.b.m.b.n.n.N.N.m.m.b.k.N.k.n.n.N.N.N.b.N.N.n.N.V.N.N.N.N.N.N.V.B.B.N.V.N.V.C.Z.S.V.J.J.V.N.Z.N.N.N.N.n.N.N.N.N.b.b.b.b.f.j.n.n.",
"b.b.b.b.b.N.N.m.m.N.m.n.k.n.n.k.n.n.N.N.N.N.N.N.n.N.n.N.N.n.b.b.N.c.N.N.N.c.N.N.V.V.V.m.N.V.n.C.N.N.N.C.N.N.c.c.n.n.n.n.b.n.n.n.",
"z.b.b.b.b.N.m.N.m.m.N.N.N.k.n.n.N.b.N.n.n.n.N.N.n.N.n.n.n.n.b.b.m.m.m.m.m.b.B.N.N.m.V.N.N.V.N.N.N.C.N.N.N.N.N.k.n.n.n.n.k.n.k.k.",
"N.N.b.N.b.b.b.N.N.N.z.N.N.n.n.N.N.b.N.m.b.N.b.N.N.N.N.N.n.V.b.V.N.V.V.B.N.N.B.B.V.N.N.N.N.N.V.N.N.n.N.C.N.N.N.N.n.n.n.n.k.n.k.n.",
"m.N.m.b.m.m.m.m.N.N.m.V.N.N.m.n.b.N.b.N.N.b.N.N.N.N.N.N.V.V.b.b.V.V.V.V.m.V.V.V.V.V.N.N.B.B.N.N.N.B.B.N.B.V.V.V.V.m.N.m.n.C.n.n.",
"B.N.m.m.N.N.N.m.N.B.B.m.N.m.N.N.V.b.N.N.N.m.N.b.N.N.N.N.m.m.V.V.m.V.V.M.m.m.m.m.N.V.N.N.B.B.V.V.V.B.M.B.V.V.V.J.V.V.V.m.N.n.N.n.",
"m.V.m.V.m.B.B.N.B.N.m.N.m.V.m.m.V.m.V.m.V.b.m.m.m.m.N.m.V.m.m.m.m.m.M.m.m.m.m.V.M.m.V.M.B.M.J.J.J.J.J.G.J.D.J.J.S.J.V.M.V.m.N.m.",
"m.m.m.m.N.B.B.V.c.B.V.m.m.m.m.m.b.V.b.m.V.m.m.m.V.V.V.m.m.m.m.b.V.V.V.m.V.m.m.V.V.M.V.V.J.J.K.Y._.Y.Y.K.K.Y.K.Y.K.Y.Y.Y.J.J.V.V."
};
