/* XPM */
static char *d4a60271a0454ea39b173a8c69bcbda4N1EB89LnDqyuW84n[] = {
/* columns rows colors chars-per-pixel */
"64 64 158 2 ",
"   c #B8E0D7",
".  c #B6E7DD",
"X  c #BCE5DD",
"o  c #B6EADD",
"O  c #BCE9DE",
"+  c #B6E5E3",
"@  c #BEE6E3",
"#  c #B5EAE2",
"$  c #BDE9E3",
"%  c #BDE6E9",
"&  c #B6EBEB",
"*  c #BCEBE9",
"=  c #C7DFDF",
"-  c #CFDFDF",
";  c #D1DCDC",
":  c #C5E4D6",
">  c #CBE5D7",
",  c #C2E9D7",
"<  c #C4E4DE",
"1  c #CBE5DD",
"2  c #C4E9DD",
"3  c #CCEADD",
"4  c #D9E1D4",
"5  c #D2E5DD",
"6  c #DBE6DD",
"7  c #D3E9DD",
"8  c #DCEADD",
"9  c #CBF0DE",
"0  c #E2E9D7",
"q  c #E4E6DE",
"w  c #ECE7DE",
"e  c #E3ECDD",
"r  c #ECECDD",
"t  c #F8E5D7",
"y  c #F4ECD7",
"u  c #F3E6DE",
"i  c #F9E5DC",
"p  c #F3EBDD",
"a  c #FAEADD",
"s  c #E5F1DC",
"d  c #ECF1DD",
"f  c #F2F0DE",
"g  c #C3DEE2",
"h  c #CCDEE0",
"j  c #C3E5E3",
"k  c #CBE6E2",
"l  c #C2E9E4",
"z  c #CCE9E3",
"x  c #C4E6E9",
"c  c #CAE6E8",
"v  c #C2E9E9",
"b  c #CBEAEA",
"n  c #D2E6E2",
"m  c #DAE5E3",
"M  c #D4EAE3",
"N  c #DCEBE3",
"B  c #D0E5EA",
"V  c #DDE7E8",
"C  c #D4ECEA",
"Z  c #DBECE9",
"A  c #D6F1E4",
"S  c #DBF1E4",
"D  c #DEF1EA",
"F  c #D6F2F3",
"G  c #E3E6E2",
"H  c #ECE6E4",
"J  c #E3ECE4",
"K  c #EBEDE0",
"L  c #EAEDE2",
"P  c #EFECE3",
"I  c #ECEEE3",
"U  c #EEEEE2",
"Y  c #EFEFE3",
"T  c #E8EBE4",
"R  c #ECE8E7",
"E  c #E8EDE7",
"W  c #ECEDE4",
"Q  c #ECE6E8",
"!  c #E3ECE9",
"~  c #E0EFE8",
"^  c #E2ECEB",
"/  c #E6EFEA",
"(  c #E3EDEC",
")  c #E3ECEA",
"_  c #EEEAEB",
"`  c #EAEFE8",
"'  c #ECEEE9",
"]  c #ECEDE9",
"[  c #F3E6E4",
"{  c #FAE7E0",
"}  c #F1EAE2",
"|  c #F6E9E0",
" . c #F7EAE1",
".. c #F4EBE2",
"X. c #F1EFE0",
"o. c #F2EFE0",
"O. c #F1EFE3",
"+. c #F5ECE3",
"@. c #F5EFE3",
"#. c #F6ECE2",
"$. c #F5EAE6",
"%. c #F4EBE6",
"&. c #F0EDE4",
"*. c #F1EDE4",
"=. c #F2EEE5",
"-. c #F3EFE6",
";. c #F5EEE6",
":. c #F3EDE3",
">. c #F8E9E2",
",. c #FBEAE2",
"<. c #FBEAE3",
"1. c #FCEBE3",
"2. c #FAECE1",
"3. c #F9ECE3",
"4. c #F9EAE5",
"5. c #FEEBE5",
"6. c #FEE9E6",
"7. c #F8EEE4",
"8. c #FCEDE6",
"9. c #FAECE3",
"0. c #F1E7E8",
"q. c #F2EDE9",
"w. c #F2EFE8",
"e. c #F4ECE9",
"r. c #F3EDE9",
"t. c #FEE9E8",
"y. c #F8EFE8",
"u. c #FBECE9",
"i. c #E6F0E5",
"p. c #E7F1E6",
"a. c #E4F0E4",
"s. c #E4F1E5",
"d. c #E8F3E2",
"f. c #EEF4E6",
"g. c #EDF1E4",
"h. c #E1F0EB",
"j. c #E5F1E9",
"k. c #EFF0EA",
"l. c #ECF2E9",
"z. c #F0F1E1",
"x. c #F0F4E3",
"c. c #F3F1E4",
"v. c #F2F3E5",
"b. c #F0F2E4",
"n. c #F5F1E6",
"m. c #F5F3E6",
"M. c #F3F1E5",
"N. c #FAF0E7",
"B. c #FAF0E5",
"V. c #F1F0EB",
"C. c #F0F0E8",
"Z. c #F7F3EA",
"A. c #F6F1EE",
"S. c #F2F2EA",
"D. c #F8F1E9",
"F. c #F9F2EA",
"G. c #F9F2E8",
"H. c #E7F1F2",
/* pixels */
"7.c.E m z j @ $ O z N g.#.| | #.y ,. .G j @ @ < # O < 6 J L L I 6 n 7 3 2 2 l v # @ j c j % % j z j O O 2 8 w ,.f r p f p p y p ",
"T G N b x v $ $ X k Z q.D.y.;.=.U Z.A.^ b l j j m m Q &.,.,.7.B.E s.s.N M z j @ % c c c x @ $ x 1 k k j j 1 N l.r r r r g.c.P P ",
"5 k k x x v v @ @ j M ! ] ] E ~ J / ^ C z l 2 1 6 T q.n.c.r r d.x.c.c.=.T n 1 O j g j $ * . O k N D ^ Z n k 3 b 8 m N Z Z J N m ",
"< j @ @ % x x @ v j k ; 6 7 z 3 n k c c v j j z G s.f.g.d e s e p #.a ,.$.J k O x x j $ o o 2 m c.m.D.q.G n 2 @ j 2 k k k 1 < k ",
"z j j @ % % j j $ j 2 1 5 3 2 X 2 j j j j j z M S.q.O.2.1.5.6.t.r r p 2.$.( C @ % @ v $ O 2 m _ y y a ,.} N 3 o @ @ $ @ X O 2 j ",
"Z M z j g j j j O 2 6 D D S 3 > z l @ @ c k v l M 8 6 6 q T T R N N q G N n k @ . O X 2 2 j m _ c.p a p c.J M 2 $ l l l k 3 M D ",
"U L J M k j 2 l 6 N E c.n.I a.N N z @ @ j g j @ 2 2 2 2 , O l v j j j z < < @ @ 2 j n M 3 < 1 M h.( E ~ J M k < 2 M N N J J g.S.",
"a 2.g.~ M j 2 @ I ;.,.,.i i p c.Z z l v x h j * m ! Z N z j @ @ + * $ $ @ @ x x m V _ j.M j 2 2 c j c k 1 < j j 5 8 / I } | { 1.",
"i } #.n.r 6 6 N =.U p p p #.U H a r M v + % 2 3 E k.v.r q N z $ @ @ % v j j k M $.Z.l.f.=.E z o O l v @ $ @ $ v 4 q D.4.p } O.r ",
"k.q.g.g.i.N M C A.q.O.c.n.Z.Z.r.B.g.m z j z Z p.=.S.c.r O.E M @ j j v v j k m s.[ r r p | ,.J 7 v @ j @ j < j j S j.l.S.=.=.=.=.",
"D 8 8 8 7 7 z b E G G G J E E / U N n b M N =.2.} #.O.p | I N 1 v j O O 2 7 J S.p O.O.p ,.1. .P v l < < j n z 5 7 A A M N ^ J R ",
": 2 1 1 1 < j @ n n 5 1 1 1 5 1 1 1 1 z C E | i #.p p p 7.Z.G 5 j @ @ O 2 z G _ q.q.I I _ P J T l < < z N ~ E G 6 1 2 2 2 j n n ",
"< 3 M N z 2 j @ < j j O O O , 2 < X < j A s.r p =.g.g.g.;.S.N 1 @ @ @ @ j v n m V V C n z k 2 2 2 1 1 N j.S.c.P Q G n 2 O O X j ",
"6 Z l.j.G n 1 j X O * * $ O O < 3 2 X : j z N a.G N 8 8 m J n : % j k z b n k g j c c x % # $ j 6 6 N L c.;.=.p y. .J N k O . @ ",
"E ] S.O.P J M 1 @ @ $ * @ j 1 M m n k < 2 < l j 1 z l 2 k k 2 . 1 N T P T V b 2 @ j j j $ @ z N r w r O.O.O.} p n.O.O.E m 1 j j ",
"2. .{ i 2.A./ 5 k j j j j n N p.T _ ) Z c j @ @ @ l % @ x j l # 0 d p 2.1.P M l o 2 < j l 2 G u.p #.p #.p } O.c.s r O.;.H m n Z ",
";.#.| u p c.n.c.b % @ 2 n R c.S.#.p p r 8 5 2 @ % @ j l O O M ^ d s s d c.#.U J j j < v x g z n T I n.n.f p O.c.P _ _ D z 3 8 c.",
"I E I I I ] E J z j j 7 G P #.p O.#.p O.e M k % j j j j < < M S 1.2.c.#.7.4.=.U z < 2 l j X j z < n 7 N N q J ~ 1 6 M z 2 , n J ",
"Z C m m N N M k j j b N q.B.f d ] q.q.g.s.m b x 2 5 m m 5 7 7 8 [ 0.E E G G J S S 8 M j j X O l + $ l k 1 z z z > , 2 @ @ X k m ",
"x k 2 1 j j j j @ 2 b V ] =.J 8 ! J N G N n 2 j 1 m T r.g.N 7 4 z k $ l z 1 3 9 =.I / N n j j v & * @ z n n n n A 3 z z @ + j c ",
"j j < 1 z k k j @ % @ j n m z z k h 1 : 1 3 2 1 7 e 7.y.;.d.e 8 @ # # # j n 8 N i  .=._ N n 1 j @ @ 5 m T I k.] k.P G C x @ + j ",
"1 n M D j.D M n x @ @ @ g c j @ @ @ X 2 3 M S S i.c.,.i u r g.U n n j j n Q $.t.| 7.7.O.L J N 5 2 1 m r 7.2.8.7.| [ [ J z 2 < j ",
"m G E g.S.S.] J V M l @ j x x x v v k M s.k.c.c.p.#.| u w O.&.} 0.J n n J _ 7.5.I c.O.O.g.g.a.8 k M ~ =.| p y p p p O.E 8 > 5 8 ",
"c.O.p u p | 7.4.I s 3 O @ j x j j j z M E ;.p t r | 4.| =.=. .{ B.E 3 j z Z J e s.J 0 0 e s a.8 X k ~ I =.O.O.g.s g.v.f.a.6 8 U ",
"O.O.p | #.O.#.#.y p J n = j % % % @ % @ k n J ` =.U P P I q.E J C b j j j j j 2 c j j j X X @ l > , , z M Z N N Z Z n j 7 q r p ",
"O.=.=.=.=.=.=.I O.S.l.m k j j % k z b k : 2 1 M N m 6 N N 7 7 5 c c j x v v j X O O X < z n m N z j < j j z k 1 z M k j b ~ q.7.",
"T J J J T J J J ~ j.D C k j j : H I E N 1 X O @ 3 j j j , < X X c j j j v v @ @ . o 2 M J S.;.5.h.A h g x v x @ h j j j z M / E ",
"n z n n 1 n n n 1 M b j 2 3 5 7 a a c.i.N j @ & @ @ $ O . o X $ j k j j @ % @ x l 2 3 e O.p a a S./ m c x v % @ % v @ @ j k k 1 ",
"O @ O X @ X O X < j O = < 1 J s p p r r J M k @ @ % @ % O j z C M M n k j j j % 1 n E L r y p p p #.P N k < 2 @ $ * v @ j l <   ",
"$ $ * $ @ * * $ x j @ X 2 N p.n.d d r r p.D c x x j j j k n ^ ' i.J Z n z < @ $ n V k.v.p r g.k.a f c.J 5 < < 2 O @ 3 3 3 z 2 X ",
"@ j v j @ j v j v v $ j z N g.p E L O.O.g.Z b j j j j k M J =. .p U I E m z j $ k Z l.g.d L R l.r d.j.N M 2 j z 1 M G J L E S M ",
"j j j j j j j j j @ @ @ 1 N r u T H } p w 7 2 O j j j M N g.#.a p 2.7.=.~ M j @ j k 7 8 q q G m 8 M M j j j j v N ` r.8.2.;.E 8 ",
"0 8 7 k 2 l v l v j j j 2 l @ O v @ v v x j j j O j z N p.v.p r ;.| B.N.#.G n < c x x j @ j j x c j j < < 5 8 q S.q.q.q.q.=.] q.",
"p P ~ M k l @ l % @ X k z z 7 5 < < . l @ X @ $ @ 2 < 1 N J J J s.J q e 8 n k j + j j j 1 j 2 j @ j @ j z m E =.P p p } O.} } } ",
"7.r.R Z z j @ $ @ O k M J R P r 7 1 3 3 j 2 @ v @ O 2 < k 3 1 3 z 1 1 1 1 < O @ O 2 M N Z N 9 3 O $ @ j z V ] r.r p f O.p #.2.2.",
"R J V n j j @ l z n N ` =.;.#.p e e J J M 2 O % @ j v j j O X . O X j v @ O X O , 7 J g.c.g.s.S l j O j b M Z R e i.s L g.U U c.",
"3 j j j j @ j j q q P &.#.O.y r c.#.#.#.T 5 = j % @ v O j 2 j l k < @ x x j < k N e } | 1.7.p T Z z k j j j j 3 1 z z M n m m m ",
"O . # $ @ j k n H [ r. .O.p r r p #.2.N.;.m k j j j X < < z N h.G m k j % j z M ] =.#.2.2.| | &.( m z j v @ X O @ @ j j j j j j ",
"@ j v @ @ v z M r r =.O.p O.I g.l.U O.2.c.E b j j j < 1 N E =.8.c.q n j @ j z N q.] p.s r L P P Z n j j v @ @ j j @ @ $ v $ v j ",
"c c c j j v j z 8 e e w q [ &.$.D N 0 w L N z @ 2 < z M p.B.{ i y r M z v j 2 5 G T J 8 7 8 q q M 2 < @ v @ j k j j l @ l @ @ @ ",
"% v l : 2 3 v @ j v v v j j < 2 c j j < X @ j x X 1 J &. .&.U T f d d 8 1 < j % j v j @ @ j 2 j x x X < k M 5 1 c x j j j j @ j ",
"g k m N J Z m z < < O X @ O j 2 % j j 2 2 @ j % 2 z J I ;. .O.g.f c.d.J n j j % v % $ j j @ @ O x j j M N ~ E J Z Z n 2 @ X @ j ",
"; m ` q.;.;.P q 3 1 = X j j j g # $ j 3 1 2 2 @ 2 7 N L U r r d g.] s.N n j x j @ @ $ v v @ @ @ @ k m T U c.d g.r.I ~ 7 < < @ v ",
"G R q. .a p 2.} N n < < j x j @ # v z m G 8 7 2 2 z z M N 6 8 N N m M M 2 j j j l @ 2 @ @ x v x < n E ,.a a f y a a c.~ M 2 v % ",
"J j.E T w r c.c.N M z j x x j j l n J P ;.=.J J j j j j j j j k k j j X 2 j v z z 3 j 2 j j @ x z Z l.B.1.a p d a p g.E z j j x ",
"1 7 N m 7 N N 7 5 k j j j j j j m G T ,.8.7.;.U M b j @ % % j x j @ X O @ 3 M N s.~ 8 1 1 = j x z M ~ p.U U e i.g.s.J 7 k < j j ",
"1 k k 2 k v j < < < j @ j j 2 j T r O.#.#.#.#.;.g.a.b j @ % j g @ @ @ 2 3 N I &.#.O.L G n b k j j j z 7 7 M n n M C z j < j j x ",
"C b j j % x x % O 2 v $ @ @ 2 2 L L d d d O.} } a f 8 3 l j j j x x j z n T ,.5.a p O.E ~ m M z @ j 2 O j j j g @ j @ j v b k j ",
"p  ._ ( C j j $ $ j k k z z 1 2 q T #.,.p a f B.p I J n k j j @ j z 6 q p p c.g.d f O.p p U r w m - @ @ & & * @ 2 7 N i.U =.}  .",
",.O.J Z z j j % . @ k M V N J Z m m N ~ N J G m 8 N n j @ l j j O j M i.] ;.#. .} p p ;.=.c.S.k.D 7 < % j < 1 5 8 d E c.c.c.c.I ",
"n.U G M j @ % v o O z N E q.c.;.m n 1 j v v j x k z $ # o l z z 2 2 3 D s.] Q 0.q.=.q.0.I R J J 9 > X O 2 n J I #.#.#.} #.d U d.",
"v.J n 2 j @ $ @ z z N T =.#.a p ` N 1 O @ @ % x j @ # $ $ b N ! N M 7 3 1 M V ^ j.` ! ! m n 1 1 X X X X j M E S.F.n.| p y p p p ",
"N 7 1 2 @ @ j j G Q T =.O.p p r ,.P G M j j j c x % j j 3 m ] u.q.R N : : 2 k x k z k k k j j v j @ v $ j k M N i.e L U ;.D.7.;.",
"1 2 2 @ O j n M 0.$.&.;.c.g.c.d t y c.S.~ 1 = j x j < n N L  .F.5. .L q 7 2 @ + O X < j j $ $ $ x x x j j b 3 5 : 1 M s.l.V.I q ",
"g j @ @ j z m E I =.O.P P =.=.I f r } Z.T 5 2 O % @ n J P p } #.| #.n.g.~ M 2 O O l j j x j @ @ g j j 1 M s.E T < 2 k M D M M 1 ",
"j x % * 2 1 N I L L q T P &.0. .f.w q R m k o # * 2 7 I #.#.U U d.g.#.;.P G n j O O j j k c k x j j z 5 e n.2.a F M k < @ 2 $ O ",
"@ O - 6 ~ N j . v j @ j n z k O k k @ @ @ j 2 o < 2 3 N h.g.g.U r O.;.;.T m z $ j b N N 6 M k X j c m U | p p p | T M v l @ 2 - ",
"@ 2 6 T I j.M z k v l j j 1 j @ < O O @ < z z M M M n n M n 8 n 3 6 m M n c @ @ z m a.r r J M 2 @ 2 n E S.;.#.=.A.` M z l @ j k ",
"2 n ~ O.;.O.T N - j $ # @ j l l j @ @ @ n 6 T e ` ! m n 1 < j $ j x @ @ @ j v l ~ E c.;.n.g.J N 2 2 7 N l.` R Q j.Z M 1 j 2 @ l ",
"M G I #.,.,.} p m k @ $ O l v x v $ O z m H p p 5.7.P G n j @ * x % % * $ b M Z T O.| a p #.r J 8 5 1 6 n M n c 3 7 5 5 k j l # ",
"8 E I n.#.#.;.;.H.M O o O j k < j l l z E q.#.p a a B.O.N M l $ c j j < z 8 R | O.p u p u p r U ;.T 6 1 < @ @ X : 3 m N N n 2 O ",
"q N J E T E E g.Z z < < M m J m 5 2 j M Z k.I E w p c.I E n 2 < g h k z N U 7.8.Z.=.U =.=.U c.S.u.r.J 2   O + O 8 q E g.` ~ n 1 ",
"q 8 5 7 3 1 M M z : : 1 T Z.c.g.G M 1 z M Z M M M M M m V C k j x x k M N E I I I T s.l.j.s.T s.T ^ C j X @ v M E I O.;.=.I T T ",
"s.Z 7 2 @ @ $ j j j M N } 1.p r S.J n k k c k O * @ j c c C b b & % @ j M M 5 5 5 ; 6 M N 6 5 5 ; M b @ @ < m G  .| p r p p O.q."
};
