/* XPM */
static char *_2c8607d9b774bf6c66c17fafac30a63fzVe9SV7pU3Y7iDt[] = {
/* columns rows colors chars-per-pixel */
"64 64 243 2 ",
"   c None",
".  c #130B0E",
"X  c #17110F",
"o  c #190E11",
"O  c #1C1313",
"+  c #1B1717",
"@  c #0C0708",
"#  c #221514",
"$  c #251B1C",
"%  c #2A1E1B",
"&  c #271717",
"*  c #361B14",
"=  c #2A1410",
"-  c #34221C",
";  c #3B2419",
":  c #2B221F",
">  c #281E21",
",  c #3A1B21",
"<  c #2D2324",
"1  c #2F2528",
"2  c #342624",
"3  c #3B2922",
"4  c #342A2D",
"5  c #3E2C2A",
"6  c #322628",
"7  c #392E32",
"8  c #3A3033",
"9  c #3E322F",
"0  c #431D15",
"q  c #49271A",
"w  c #512B19",
"e  c #432C24",
"r  c #4B2E24",
"t  c #442A27",
"y  c #4C342B",
"u  c #493228",
"i  c #53352A",
"p  c #543A2E",
"a  c #583728",
"s  c #4C3932",
"d  c #483736",
"f  c #523C32",
"g  c #5A3C36",
"h  c #582D28",
"j  c #79373C",
"k  c #693632",
"l  c #5D4235",
"z  c #5D453B",
"x  c #544238",
"c  c #4C413A",
"v  c #654A3D",
"b  c #6B4C3D",
"n  c #664635",
"m  c #724C37",
"M  c #76523E",
"N  c #71442C",
"B  c #443F43",
"V  c #7D3B44",
"C  c #4B4343",
"Z  c #574847",
"A  c #585052",
"S  c #644B42",
"D  c #6B4E41",
"F  c #684D4C",
"G  c #734848",
"H  c #6D5244",
"J  c #6B574C",
"K  c #735343",
"L  c #7B5A44",
"P  c #74594A",
"I  c #7B5D4B",
"U  c #765746",
"Y  c #685755",
"T  c #775C54",
"R  c #7E4A53",
"E  c #7B624E",
"W  c #7A6458",
"Q  c #776864",
"!  c #7D777C",
"~  c #7F7166",
"^  c #8B363D",
"/  c #8D5837",
"(  c #8C3D46",
")  c #89494E",
"_  c #9A4649",
"`  c #884952",
"'  c #974C54",
"]  c #99545B",
"[  c #85584D",
"{  c #A25959",
"}  c #85634C",
"|  c #826554",
" . c #866C5D",
".. c #8B6C5B",
"X. c #886956",
"o. c #956C59",
"O. c #8E725D",
"+. c #94725B",
"@. c #9A5C65",
"#. c #8E5760",
"$. c #866C63",
"%. c #9C6669",
"&. c #8D7464",
"*. c #85756A",
"=. c #9A7B65",
"-. c #957B6C",
";. c #957767",
":. c #8B7D73",
">. c #887675",
",. c #997672",
"<. c #A4646E",
"1. c #A86A74",
"2. c #A87978",
"3. c #B27371",
"4. c #A45C64",
"5. c #C0777D",
"6. c #9E836D",
"7. c #93816F",
"8. c #9D8474",
"9. c #99867A",
"0. c #8E817B",
"q. c #A38B74",
"w. c #AB8C76",
"e. c #A48C7B",
"r. c #A88777",
"t. c #B48E78",
"y. c #AA927C",
"u. c #A6937F",
"i. c #B49378",
"p. c #A9846E",
"a. c #C0937C",
"s. c #837C83",
"d. c #BB7B81",
"f. c #9A8B84",
"g. c #96908E",
"h. c #A38E81",
"j. c #B88685",
"k. c #AA9788",
"l. c #B29B84",
"z. c #B3948C",
"x. c #B39D8C",
"c. c #B79787",
"v. c #A99C97",
"b. c #B99B94",
"n. c #BBA38D",
"m. c #B5A38C",
"M. c #ABA197",
"N. c #B4A492",
"B. c #BBA493",
"V. c #BBAA96",
"C. c #BBA69A",
"Z. c #BDAB9A",
"A. c #B6A99C",
"S. c #BFB09E",
"D. c #BBACA2",
"F. c #BCB3AC",
"G. c #AFA8A3",
"H. c #C59A8E",
"J. c #C2A594",
"K. c #C2AD9C",
"L. c #C5A799",
"P. c #C4B29C",
"I. c #CDB29D",
"U. c #D5B59C",
"Y. c #CCAB8D",
"T. c #C2ADA3",
"R. c #CDADA7",
"E. c #C4B3A3",
"W. c #C9B6A4",
"Q. c #CAB9A5",
"!. c #C4B5AB",
"~. c #C9B6A9",
"^. c #C6BAAB",
"/. c #CCBCAB",
"(. c #C4B8A5",
"). c #D1BDAB",
"_. c #D8B8A4",
"`. c #CDBDB2",
"'. c #C4B9B1",
"]. c #D0BEB1",
"[. c #DDBEB5",
"{. c #D1AFA6",
"}. c #CFC1AD",
"|. c #D2C3AD",
" X c #D9C1AA",
".X c #CEC2B4",
"XX c #CCC3BC",
"oX c #D3C4B4",
"OX c #D6C9B5",
"+X c #DACBB6",
"@X c #D4C6BA",
"#X c #D6C9BA",
"$X c #DACCBC",
"%X c #DBC5B5",
"&X c #DDD1BD",
"*X c #E5CDB8",
"=X c #E1D2BD",
"-X c #EED4BF",
";X c #D5CBC2",
":X c #DBCEC2",
">X c #DCCEC8",
",X c #DED1C3",
"<X c #DED4CA",
"1X c #DCD8CE",
"2X c #D6D0CA",
"3X c #E2D5C4",
"4X c #EBD4C3",
"5X c #E4D9C6",
"6X c #E2D5CA",
"7X c #E4DACC",
"8X c #EADCCC",
"9X c #F2DBC9",
"0X c #E5DDD2",
"qX c #E8DED4",
"wX c #E4DBD4",
"eX c #E2CFC2",
"rX c #E9E1CF",
"tX c #E7E0CE",
"yX c #EBE3D5",
"uX c #ECE4DA",
"iX c #EFE9DC",
"pX c #EBE5D5",
"aX c #F2E5D5",
"sX c #F2EADD",
"dX c #FAECDC",
"fX c #F4E6DA",
"gX c #F1E0CD",
"hX c #EFEAE1",
"jX c #E3E2E3",
"kX c #F4ECE2",
"lX c #F9EEE4",
"zX c #F5EFE8",
"xX c #F9F2E5",
"cX c #F5F2E9",
"vX c #FBF5EC",
"bX c #FDF8EF",
"nX c #F6F1E7",
"mX c #FEFCF6",
"MX c #FDFAF3",
"NX c #FEFFFA",
"BX c #FEFDF9",
"VX c #FDFCF9",
"CX c #FAF7F1",
/* pixels */
"                                                                                                                                ",
"                                                                            0.                                                  ",
"                                                                        0.:.W *.W Q k.                                          ",
"                                                                      *.Z x f l e s $.e.`.                                      ",
"                                                                      0.c # X # 3 y e -.:XhX                                    ",
"                                                  VXVXVXVXVXVXmXmXbXhX}.E $ X X + 2 f $.8XMXVX                                  ",
"                                            CXVXBXBXBXmXVXVXMX0XS.N.u.| x % X @ . + v  .,XbXBXBXVX                              ",
"                                        VXNXNXNXVXBXBXMXMXMXiX9.P H U ..} s % X . $ s h.pXMXBXMXmXBXBX                          ",
"                          :.      VXVXNXNXNXNXNXBXBXBXMXMXMX.XO.E b H | =.;.S > O C *.Z.sXbXMXMXMXVXVXVX                        ",
"                      0.J x :.cXBXBXVXVXNXNXNXBXNXBXBXMXMXMX}.O.v S K I ..y.;.s 2 Z k.<XxXxXvXxXcXvXMXCX                        ",
"                x.e. .l 5 c :.1XMXmXBXBXBXMXBXBXNXNXVXMXMXiX6.v v v l n I 8.e.S 3 2 A.uXxXkXlXkXlXvXvXvX                        ",
"              9.l r u 5 d Y k.iXbXMXBXmXmXmXmXBXBXNXVXMXbXOXL l v v l p S W &.S u % :.aXnXnXlXkXkXcXcX                          ",
"            &.p % : : - 9 Q .XhXvXbXbXbXbXbXbXbXmXmXmXMXnXN.n x M D b n H  .;.H u - J ,XnXnXkXkXkXkX                            ",
"          &.y 2 # + : 9 4 *.1XkXvXvXxXxXvXvXbXbXbXMXMXbXnX|.U l b b b l K X.e.9.P y 4 $XlXlXsXsXsXuX                            ",
"        E 5 % O X X + : s M.pXsXxXsXkXkXlXxXvXvXvXvXbXvXxXtXU a a a p u y D ;.,. .n % .XkXkXpXyXuX$X                            ",
"      :.% # # O O X X : Z F.pXiXaXdXsXkXsXkXxXvXvXvXvXvXkXtXP ; y r u r 3 * g K U K - k.qXkXkX8X}.                              ",
"      f # O 2 l i % y W N.<XpXaXaXsXnXsXsXyXaXlXxXxXvXvXxXaX7.3 t u e - Z C q % l M - ~ OXsXtXS.Q.                              ",
"    :.& + c f.r.+.K | N.OXqXsXpXiXkXiX7XOXoX&XtXaXlXvXxXxXkXF.J p r - Y N / m u p v 5 2 m.<X~ n.OX                              ",
"    W + > T.eXW.p...q.}.3XyXiXsXiXaX'.9.Q ~ oX&XpXsXvXvXbXbXiX^.W l 2 Y y r e y v z v ; s *.3 9.$X                              ",
"    x 1 T #X3Xn.p.q.P.+X8XpXrXiXpX#XQ e + z [.4XaXlXvXMXbXbXbXnX'.$.f t t s S P K v H b y g . T ^.                              ",
"    c T k.#XrXI.Y.|.&X5XtXtXtXpX6Xz.>.o./ N H.%XaXlXCXMXVXVXCXCXnXS.*.v H I P v z z b I p D 3 q 9.                              ",
"    7.C.R.@X=X&X=X+X=X5X5X8X5X<XwX@X[.R.,.~.{.8XsXlXMXBXVXVXVXVXMXkX<X7.J v x s z v v D b K p t e.                              ",
"  h.(.OX      8X&X+XrX=X5XtX8X8XqXqXqX6X4X6X4XuXkXzXMXVXVXVXVXVXVXBXMX7X$.S y s Z l H D H l W U S.                              ",
"  XX<X,X        tXaXrX+X&XtXtXtXyXqXqXuXqXqXqXzXkXvXVXVXCXCXvXlXmXmXVXMX`. .H S | P D l i K V.}.oX                              ",
"    ,X          pXpX5X|.OXpXtXtXyXqX1XwXwXyXkXkXiXvXMXCXCXzXzXlXvXmXNXVXvX.X9.'..X9.&.z r K }.,X5X                              ",
"                  7X+XQ.+XuXyXtXqXyX7X6X,XyXkXsXiXcXvXvXzXjXkX:X;XhXvXBXVXcXpXuXsXyXZ.J v 9.5X5XtX                              ",
"                    +X X+XpXpXtXyXpXyX3X3XpXkXhXhXvXVXzXXXG.v.G.v.g.F.hXVXMXhXnXsXsX3X+X5XaXaX8XpXsX                            ",
"                      +X,XyXtXtXtXtXpXpXuXsXuXkXcXMXhXv.Q ! s.! ! Q A v.hXBXnXkXkXyX&X5XtXlXdXdXgXaXdX8X                        ",
"                        tXpX5X,X8XpXiXsXsXsXsXaXvXhXF.Y Y A A B B 8 8 A @XCXCXhXsX8X5XaXgX-X9X*X-X*X X*X                        ",
"                          pX5X&X8XrXpXiXsXsXsXuXcXhXg.Z 4 7 4 4 > . 1 8 F.kXvXkXqX3X8X8X=XP.-X_.U.i.Y. X*X                      ",
"                          uX7X+X&XyXpXuXuXsXyXuXhXwXQ B + @ 4 1 < O 7 d G.uXcXkX&X|.&X9XI.L ;.o.o.X.} n L                       ",
"                            tX<XOXuXpXyXpXuXuXuXiX1X:.7 1 7 7 > 1 Z A Q eXuXkXlX^.m.+X4X6.n w w m N N h a J.                    ",
"                            tX7X3X7X6X5XqXqXqXhXjX>XXX>.7 1 > 1 > $ 5 z.%X6XfXzXk.K.4X4Xq.q 0 0 a a * q q H.9X                  ",
"                              0X0XwXQ.v.wXqXqXqXwX>XXXR.>.4 > > $ > Y J.].[.8XqX9.3XdX4XL.n * * N * 0 w a a.-X9X                ",
"                              yX7X0XoX8.'.wXqXhXqX>XXXR.b.B 7 1 > 6 ,.c.L.).eX:X-.lXxX9XW.X.a M X.} } N } p._.U. X              ",
"                              0X<X7X6X/.s.2XjXwX>X[.`.T.L.j.%.B Z Q 2.z.L.{.$XJ.,.9X-X).J.=.M } i.i.I.i.p.p.w.i.Y.              ",
"                              0X3X&X<X<X!.h.wXwX>XXXv.H.b.j.F 1 + d Q d.b.{.oXo.H.J.U.I.P.I.i.6.Y.w.6.=.w.} +./ a.              ",
"                              qX5X,X=X7X1Xf.!.>X'.`.R.z.<.Z > o . . < F =.j.3._ H.w.t.t.I.I.Y.M / o.O.m * ; H  .q.              ",
"                              0X7X3X&X<XqX;XT D.].R.z.$.B # o . o o = h 2.o.j [ t.c.K  .k u y u r n L m M a x -.Q.              ",
"                                yX5X&X+X>XqXG.#.F ,.#.t & # & o , t h ) a.] k P /.+Xq.M ; r a ; q r w a N M L y.1X              ",
"                                tX0X5X3X3X5X7Xb.` t 1.#.R G R F ` #.@.<.5.{  .).+X&XOXy.M u ; u E | b q a H 9.}.#X/.            ",
"                                yX5X5X8X6X5X6X6Xb.B d.d.d.<.d.<.d.@.@.4.<.4.z.+X+X+X+X+Xq.P E q.O.O.6...l -.P.}.&.8.            ",
"                                qXwX5X7XuXwX8X6X6Xv.d.5.d.@.<.@.1.<.] ' { 2.@X+X|.|.oXQ.q.6.w.=.M E O.q.y.P.|.P.| ,.h.          ",
"                                wX0X7X<X0XyXqX6X6X6X{.1.@.%.#.` #.( ' ] ' v.3X&X&XP.V.l.+.X.| L b E  .w.K./.}.Z.I ..h.          ",
"                                5X5X5X5X6X5X7XwX8X>X%X3.] @.( j V ( ] ] d.>X#XW.P.P.m.V.6.q.O.L M | O.6.V.Q.|.$Xk U h.E.        ",
"                                6X3X<X&XOX+X).oX:X3X@XJ._ ' V j ( ( ' ( {.:XQ.E.(.l.Q.&X|.V.6...I E | O.;.w.Q.rXE D q.`.        ",
"                                6X<X,X,X#X#X~.|.].>X6X:X2.( ^ j ( ( ( z.@XW.C.N.A.A.+X,XtX|.J.u.&.|  .X.L q.I.=Xk...=.`.        ",
"                                7X3X&X,XOXoX/./.;X6X6X4X#XJ.j.2.d.z.`.R.W.E.v.v.M.M.&X5X=X XP.y.-.H a i E m.V.Q.qX7.=.C.        ",
"                              <X5X3X,X,X$X#X}.oX#X:X,X1X:X:X1XqX6X;X$X(.Q.F.v.g.g.M.&X&X=X=XW.B.e.O.E O.w.E.P.Q.pX0X^.E.        ",
"                              <X<X5X,X&X3X,X#X}.(.@X$X;X@X@X;X;X6XXX.XZ.S.D.k.! g.P.|.|.=X=X=X/.P.l.6.6.w.P.|./.5XaXsX:X6X      ",
"                              1X6X,X,X,X,X,X$X}.E.).~.`..X`.F.^./.A.C.k.k.Z.E.N.V.}.n. X=X5X4X=X/.P.q.E E /.oX|.3XyXhXhX6X      ",
"                              7X7X3X,X$X,X&X&X@XE.Q.x.E./.W.V.x.N.x.m.k.V.Q.V.x.P.n.n.+X3X=X3X5XoX/.oX|.@X$XoX%X,XyXuXhXkXwX    ",
"                              7X7X7X<X,X$X,X$X$XP.P.u.W./.P.Z.B.x.N.N.S./.l.B.T.S.n.+X,X&X+X:X3X|.oXE.`.:X:X#X+X6XqXuXkXhXwX    ",
"                              0XyXwX5X3X#X#X$XoX~.P.l.I.}.Q.E.P.Z.Z.E.oXC.m.W.W.P.|.&X&X+X%X#X$XoXK.~.`.@X3X6X6X3X6XyXsXzXwX    ",
"                              yXyXqXqX5X,X#XoX/.~.P.V.|.|.Q.Q./.~.(.oXoXV.K.E.(.Q.OX&X&X$X$X#X$X%X~.E.!./.`.@X#X3X6X7XuXuX;X    ",
"                                yXyXyX0X3X,XoX~.S.W.S././.~.}.}.oXOX&XQ.P.S.P.W.W.OX$X$X$X$X:X$X#X/./.~.~.oX#X3X>X6X1XwXuX<X9.  ",
"                                uXuXqXqXwX7X>X$X~.~.P.~.Q.~.oXOX&X&XoX/.E.P.n.P.K.oX,X:X3X<X>XeX#X]./.oX#X$X#X<X:XoX$X6X7X;Xf.  ",
"                                yXuXyXqXwX7X6XeXoXoX}./.}.I.oX3X3X+X.X).~./.P.P.E.+X,X<X6X3X6X>X:X@X].`././.oXoXoXoX+X,X1X^.*.  ",
"                                uXuXqXqX0X7X<X:X$XOXOX#XOXQ.oX$X`.E.E.W./.|./././.#X@X@X:X>X>X>X:X%X@XoXoX/./.@XoX+X$X<X1XXXF.  ",
"                                hXjXuXqXwXwX>X#X$X$X#XoX#X#X$X@X/.E.x.y.Q.Q././.).#X`.K.W.].;X@X>X:XoX@XoX/.~.)..XOX$X<X1X2X;X  ",
"                                yXuXuXqXqX6X<X>X;X$XoXoXoX@X%XoX].T.x.q.J.Q.}././.]./.x.C.R.`.!.^.@X$X].oXoX/./..X#X$X,X6X<X1X  ",
"                                wXyXhXqXqX7X6X6X>X>X@X@X#XoXoX/.~.K.l.8.y.P././././.~.x.k.T.!.D.k.v.C.@XoXoX@X;XoXoX#X;X>X;XF.  ",
"                                  yXqXuXjXqXqX6X6X<X;XoX/.T.E.Z.C.C.x.y.i.~.W.E.~./.~.C.b.C.T.!.f.$.Q b./.@X/.oX.X/..X#X;X;XjX  ",
"                                  uXyXqXwXwX6X6X:XoX/.C.z.l.h.m.K.x.y.l.m.|./.!.~./.!.C.C.T.D.!.h.y y z U A.#X/..XoX$X#XXXF.    "
};
